<?xml version="1.0" encoding="UTF-8" standalone="no"?>
<svg
   xmlns:dc="http://purl.org/dc/elements/1.1/"
   xmlns:cc="http://creativecommons.org/ns#"
   xmlns:rdf="http://www.w3.org/1999/02/22-rdf-syntax-ns#"
   xmlns:svg="http://www.w3.org/2000/svg"
   xmlns="http://www.w3.org/2000/svg"
   xmlns:xlink="http://www.w3.org/1999/xlink"
   xmlns:sodipodi="http://sodipodi.sourceforge.net/DTD/sodipodi-0.dtd"
   xmlns:inkscape="http://www.inkscape.org/namespaces/inkscape"
   sodipodi:docname="user-trash-full.svg"
   inkscape:version="1.0 (4035a4fb49, 2020-05-01)"
   id="svg8"
   version="1.1"
   viewBox="0 0 64 64"
   height="64"
   width="64">
  <title
     id="title7895">Antu icon Theme</title>
  <defs
     id="defs2">
    <linearGradient
       gradientUnits="userSpaceOnUse"
       y2="22.75"
       x2="31.75"
       y1="57"
       x1="31.75"
       id="linearGradient5647"
       xlink:href="#linearGradient10231-8"
       inkscape:collect="always" />
    <linearGradient
       gradientUnits="userSpaceOnUse"
       y2="13"
       x2="32"
       y1="21"
       x1="32"
       id="linearGradient5674"
       xlink:href="#linearGradient10231-8"
       inkscape:collect="always"
       gradientTransform="translate(-12,257.02245)" />
    <linearGradient
       gradientUnits="userSpaceOnUse"
       y2="7"
       x2="32"
       y1="12"
       x1="32"
       id="linearGradient5688"
       xlink:href="#linearGradient10231-8"
       inkscape:collect="always"
       gradientTransform="translate(-12,257.02245)" />
    <linearGradient
       inkscape:collect="always"
       id="linearGradient10231-8">
      <stop
         style="stop-color:#e85145;stop-opacity:1"
         offset="0"
         id="stop10227-9" />
      <stop
         style="stop-color:#fe756a;stop-opacity:1"
         offset="1"
         id="stop10229-7" />
    </linearGradient>
  </defs>
  <sodipodi:namedview
     inkscape:document-rotation="0"
     guidetolerance="10"
     gridtolerance="10"
     objecttolerance="10"
     inkscape:window-maximized="1"
     inkscape:window-y="0"
     inkscape:window-x="0"
     inkscape:window-height="1126"
     inkscape:window-width="1920"
     units="px"
     showgrid="true"
     inkscape:current-layer="layer1"
     inkscape:document-units="px"
     inkscape:cy="34.630822"
     inkscape:cx="41.420217"
     inkscape:zoom="15.839192"
     inkscape:pageshadow="2"
     inkscape:pageopacity="0.0"
     borderopacity="1.0"
     bordercolor="#666666"
     pagecolor="#ffffff"
     id="base">
    <inkscape:grid
       empspacing="4"
       id="grid7897"
       type="xygrid" />
  </sodipodi:namedview>
  <metadata
     id="metadata5">
    <rdf:RDF>
      <cc:Work
         rdf:about="">
        <dc:format>image/svg+xml</dc:format>
        <dc:type
           rdf:resource="http://purl.org/dc/dcmitype/StillImage" />
        <dc:title>Antu icon Theme</dc:title>
      </cc:Work>
    </rdf:RDF>
  </metadata>
  <g
     transform="translate(0,-250.64999)"
     id="layer1"
     inkscape:groupmode="layer"
     inkscape:label="Capa 1">
    <g
       transform="translate(12,-6.37246)"
       id="g5239">
      <path
         sodipodi:nodetypes="sscssccccccssssccccccsscsssccccc"
         inkscape:connector-curvature="0"
         id="rect5510"
         d="m 14,262.02245 c -2.216029,0 -4,1.78397 -4,4 v 3 H 3 c -2.216025,0 -4,1.78398 -4,4 v 1 1 4 h 2 v 5 13 14 c 0,3.32401 2.675988,6 6,6 h 26 c 3.324012,0 6,-2.67599 6,-6 v -14 -13 -5 h 2 v -4 -1 -1 c 0,-2.21602 -1.783975,-4 -4,-4 h -7 v -3 c 0,-2.21603 -1.783971,-4 -4,-4 z m 0,4 h 12 v 3 H 14 Z"
         style="opacity:1;fill:#e53737;fill-opacity:1;stroke:none;stroke-width:2;stroke-linecap:round;stroke-linejoin:round;stroke-miterlimit:4;stroke-dasharray:none;stroke-opacity:1" />
      <path
         id="rect5526"
         d="m 3,270.02245 c -1.662,0 -3,1.338 -3,3 v 1 1 3 h 3 34 3 v -3 -1 -1 c 0,-1.662 -1.338,-3 -3,-3 z"
         style="opacity:1;fill:url(#linearGradient5674);fill-opacity:1.0;stroke:none;stroke-width:2;stroke-linecap:round;stroke-linejoin:round;stroke-miterlimit:4;stroke-dasharray:none;stroke-opacity:1"
         inkscape:connector-curvature="0" />
      <path
         sodipodi:nodetypes="sscccccsssscccccsss"
         inkscape:connector-curvature="0"
         id="rect5534"
         d="m 14,263.02245 c -1.662,0 -3,1.338 -3,3 v 0 3 h 2 v -1 -1 -1 c 0,-0.554 0.446,-1 1,-1 h 12 c 0.554,0 1,0.446 1,1 v 1 1 1 h 2 v -3 0 c 0,-1.662 -1.338,-3 -3,-3 z"
         style="opacity:1;fill:url(#linearGradient5688);fill-opacity:1.0;stroke:none;stroke-width:2;stroke-linecap:round;stroke-linejoin:round;stroke-miterlimit:4;stroke-dasharray:none;stroke-opacity:1" />
      <path
         transform="translate(-12,257.02245)"
         d="M 14 22 L 14 27 L 14 44 L 14 54 C 14 56.77 16.23 59 19 59 L 45 59 C 47.77 59 50 56.77 50 54 L 50 44 L 50 27 L 50 22 L 45 22 L 19 22 L 14 22 z M 23 27 C 24.108 27 25 27.892 25 29 L 25 50 C 25 51.108 24.108 52 23 52 C 21.892 52 21 51.108 21 50 L 21 29 C 21 27.892 21.892 27 23 27 z M 32 27 C 33.107999 27 34 27.892 34 29 L 34 50 C 34 51.108 33.107999 52 32 52 C 30.891999 52 30 51.108 30 50 L 30 29 C 30 27.892 30.891999 27 32 27 z M 41 27 C 42.107998 27 43 27.892 43 29 L 43 50 C 43 51.108 42.107998 52 41 52 C 39.892001 52 39 51.108 39 50 L 39 29 C 39 27.892 39.892001 27 41 27 z "
         style="opacity:1;fill:url(#linearGradient5647);fill-opacity:1.0;stroke:none;stroke-width:2;stroke-linecap:round;stroke-linejoin:round;stroke-miterlimit:4;stroke-dasharray:none;stroke-opacity:1"
         id="rect5539" />
    </g>
  </g>
</svg>
