<?xml version="1.0" encoding="UTF-8" standalone="no"?>
<svg
   xmlns:dc="http://purl.org/dc/elements/1.1/"
   xmlns:cc="http://creativecommons.org/ns#"
   xmlns:rdf="http://www.w3.org/1999/02/22-rdf-syntax-ns#"
   xmlns:svg="http://www.w3.org/2000/svg"
   xmlns="http://www.w3.org/2000/svg"
   xmlns:xlink="http://www.w3.org/1999/xlink"
   xmlns:sodipodi="http://sodipodi.sourceforge.net/DTD/sodipodi-0.dtd"
   xmlns:inkscape="http://www.inkscape.org/namespaces/inkscape"
   width="128"
   height="128"
   viewBox="0 0 128 128"
   version="1.1"
   id="svg8"
   inkscape:version="1.0.1 (3bc2e813f5, 2020-09-07)"
   sodipodi:docname="alt-music.svg">
  <title
     id="title7895">Antu icon Theme</title>
  <defs
     id="defs2">
    <linearGradient
       gradientUnits="userSpaceOnUse"
       y2="215.64999"
       x2="-8.0000038"
       y1="275.64999"
       x1="-8.0000038"
       id="linearGradient934"
       xlink:href="#linearGradient3637"
       inkscape:collect="always"
       gradientTransform="matrix(0.49999988,0,0,0.49999988,-25.999988,132.82502)" />
    <linearGradient
       inkscape:collect="always"
       xlink:href="#linearGradient866"
       id="linearGradient1311"
       gradientUnits="userSpaceOnUse"
       x1="-7.9999981"
       y1="326.64999"
       x2="-9.0000067"
       y2="239.64998"
       gradientTransform="translate(-2.999996)" />
    <linearGradient
       inkscape:collect="always"
       id="linearGradient866">
      <stop
         style="stop-color:#c374de;stop-opacity:1"
         offset="0"
         id="stop862" />
      <stop
         style="stop-color:#e771cf;stop-opacity:1"
         offset="1"
         id="stop864" />
    </linearGradient>
    <linearGradient
       inkscape:collect="always"
       id="linearGradient3629">
      <stop
         style="stop-color:#a73cd6;stop-opacity:1"
         offset="0"
         id="stop3625" />
      <stop
         style="stop-color:#e437ba;stop-opacity:1"
         offset="1"
         id="stop3627" />
    </linearGradient>
    <linearGradient
       inkscape:collect="always"
       id="linearGradient3637">
      <stop
         style="stop-color:#b56bcc;stop-opacity:1"
         offset="0"
         id="stop3633" />
      <stop
         style="stop-color:#c474de;stop-opacity:1"
         offset="1"
         id="stop3635" />
    </linearGradient>
    <linearGradient
       inkscape:collect="always"
       xlink:href="#linearGradient3629"
       id="linearGradient922"
       x1="64"
       y1="120.0004"
       x2="68"
       y2="32.000404"
       gradientUnits="userSpaceOnUse" />
    <linearGradient
       inkscape:collect="always"
       xlink:href="#linearGradient3629"
       id="linearGradient930"
       x1="16.000002"
       y1="288.64999"
       x2="16.000002"
       y2="196.64999"
       gradientUnits="userSpaceOnUse" />
  </defs>
  <sodipodi:namedview
     id="base"
     pagecolor="#ffffff"
     bordercolor="#666666"
     borderopacity="1.0"
     inkscape:pageopacity="0.0"
     inkscape:pageshadow="2"
     inkscape:zoom="5.5167464"
     inkscape:cx="90.087376"
     inkscape:cy="69.016415"
     inkscape:document-units="px"
     inkscape:current-layer="layer1-6"
     showgrid="true"
     units="px"
     inkscape:window-width="1920"
     inkscape:window-height="1126"
     inkscape:window-x="0"
     inkscape:window-y="0"
     inkscape:window-maximized="1"
     objecttolerance="10"
     gridtolerance="10"
     guidetolerance="10"
     inkscape:document-rotation="0">
    <inkscape:grid
       type="xygrid"
       id="grid7897"
       empspacing="4" />
  </sodipodi:namedview>
  <metadata
     id="metadata5">
    <rdf:RDF>
      <cc:Work
         rdf:about="">
        <dc:format>image/svg+xml</dc:format>
        <dc:type
           rdf:resource="http://purl.org/dc/dcmitype/StillImage" />
        <dc:title>Antu icon Theme</dc:title>
      </cc:Work>
    </rdf:RDF>
  </metadata>
  <g
     inkscape:label="Capa 1"
     inkscape:groupmode="layer"
     id="layer1"
     transform="translate(0,-186.64999)">
    <g
       id="g5235"
       transform="translate(31.999998,-19.999995)">
      <g
         transform="matrix(2.0000005,0,0,2.0000005,7.999995,-302.65013)"
         id="g6698">
        <g
           id="g899"
           transform="translate(21.999994,18.000001)">
          <path
             d="m -35.499983,239.14999 c -3.315347,0 -5.999998,2.68466 -5.999998,6 v 46.99999 c 0,3.31535 2.684651,6 5.999998,6 H 15.5 c 3.315344,0 5.999999,-2.68465 5.999999,-6 v -38.99999 c 0,-3.31534 -2.684655,-6 -5.999999,-6 H -8.9999892 c -0.976852,0 -1.7870468,-0.42264 -2.6025388,-1.12793 -0.815492,-0.70529 -1.602512,-1.68737 -2.452148,-2.69434 -1.699271,-2.01395 -3.723089,-4.17773 -6.94531,-4.17773 z"
             style="color:#000000;font-style:normal;font-variant:normal;font-weight:normal;font-stretch:normal;font-size:medium;line-height:normal;font-family:sans-serif;font-variant-ligatures:normal;font-variant-position:normal;font-variant-caps:normal;font-variant-numeric:normal;font-variant-alternates:normal;font-variant-east-asian:normal;font-feature-settings:normal;font-variation-settings:normal;text-indent:0;text-align:start;text-decoration:none;text-decoration-line:none;text-decoration-style:solid;text-decoration-color:#000000;letter-spacing:normal;word-spacing:normal;text-transform:none;writing-mode:lr-tb;direction:ltr;text-orientation:mixed;dominant-baseline:auto;baseline-shift:baseline;text-anchor:start;white-space:normal;shape-padding:0;shape-margin:0;inline-size:0;clip-rule:nonzero;display:inline;overflow:visible;visibility:visible;opacity:1;isolation:auto;mix-blend-mode:normal;color-interpolation:sRGB;color-interpolation-filters:linearRGB;solid-color:#000000;solid-opacity:1;vector-effect:none;fill:#9033b2;fill-opacity:1;fill-rule:nonzero;stroke:none;stroke-width:1;stroke-linecap:butt;stroke-linejoin:miter;stroke-miterlimit:4;stroke-dasharray:none;stroke-dashoffset:0;stroke-opacity:1;color-rendering:auto;image-rendering:auto;shape-rendering:auto;text-rendering:auto;enable-background:accumulate;stop-color:#000000;stop-opacity:1"
             id="path1242"
             sodipodi:nodetypes="sssssssssssss" />
          <g
             transform="matrix(0.49999988,0,0,0.49999988,-25.999985,133.32482)"
             style="opacity:1"
             id="g1210">
            <path
               id="path1212"
               d="m -19.000007,212.64998 23.000009,1e-5 c 12,0 11,16 20,16 l 55.000008,-1e-5 c 6.093996,0 10.999992,4.90599 10.999992,10.99999 v 78.00002 c 0,6.094 -4.905996,11 -10.999992,11 h -98.000017 c -6.093995,0 -10.999991,-4.906 -10.999991,-11 v -94.00002 c 0,-6.094 4.905996,-10.99999 10.999991,-10.99999 z"
               style="color:#000000;font-style:normal;font-variant:normal;font-weight:normal;font-stretch:normal;font-size:medium;line-height:normal;font-family:sans-serif;font-variant-ligatures:normal;font-variant-position:normal;font-variant-caps:normal;font-variant-numeric:normal;font-variant-alternates:normal;font-variant-east-asian:normal;font-feature-settings:normal;font-variation-settings:normal;text-indent:0;text-align:start;text-decoration:none;text-decoration-line:none;text-decoration-style:solid;text-decoration-color:#000000;letter-spacing:normal;word-spacing:normal;text-transform:none;writing-mode:lr-tb;direction:ltr;text-orientation:mixed;dominant-baseline:auto;baseline-shift:baseline;text-anchor:start;white-space:normal;shape-padding:0;shape-margin:0;inline-size:0;clip-rule:nonzero;display:inline;overflow:visible;visibility:visible;isolation:auto;mix-blend-mode:normal;color-interpolation:sRGB;color-interpolation-filters:linearRGB;solid-color:#000000;solid-opacity:1;vector-effect:none;fill:none;fill-opacity:0.335465;fill-rule:nonzero;stroke:none;stroke-width:2;stroke-linecap:butt;stroke-linejoin:miter;stroke-miterlimit:4;stroke-dasharray:none;stroke-dashoffset:0;stroke-opacity:1;color-rendering:auto;image-rendering:auto;shape-rendering:auto;text-rendering:auto;enable-background:accumulate;stop-color:#000000;stop-opacity:1" />
          </g>
          <path
             id="rect1149-4-0"
             style="fill:url(#linearGradient934);fill-opacity:1.0;stroke-width:0.5"
             d="m -35.499983,239.64999 14.500001,1e-5 c 5.999999,0 7.499998,8 11.9999968,8 l 24.4999902,-1e-5 c 3.046999,0 5.499994,2.453 5.499994,5.49998 v 39.00001 c 0,3.047 -2.453,5.5 -5.499994,5.5 h -50.999988 c -3.046996,0 -5.499994,-2.453 -5.499994,-5.5 v -47.00001 c 0,-3.04699 2.452998,-5.49998 5.499994,-5.49998 z"
             sodipodi:nodetypes="sccssssssss" />
          <g
             id="g1040"
             style="opacity:1"
             transform="matrix(0.49999988,0,0,0.49999988,-25.999988,132.82503)">
            <path
               id="path1048"
               style="color:#000000;font-style:normal;font-variant:normal;font-weight:normal;font-stretch:normal;font-size:medium;line-height:normal;font-family:sans-serif;font-variant-ligatures:normal;font-variant-position:normal;font-variant-caps:normal;font-variant-numeric:normal;font-variant-alternates:normal;font-variant-east-asian:normal;font-feature-settings:normal;font-variation-settings:normal;text-indent:0;text-align:start;text-decoration:none;text-decoration-line:none;text-decoration-style:solid;text-decoration-color:#000000;letter-spacing:normal;word-spacing:normal;text-transform:none;writing-mode:lr-tb;direction:ltr;text-orientation:mixed;dominant-baseline:auto;baseline-shift:baseline;text-anchor:start;white-space:normal;shape-padding:0;shape-margin:0;inline-size:0;clip-rule:nonzero;display:inline;overflow:visible;visibility:visible;isolation:auto;mix-blend-mode:normal;color-interpolation:sRGB;color-interpolation-filters:linearRGB;solid-color:#000000;solid-opacity:1;vector-effect:none;fill:url(#linearGradient922);fill-opacity:1;fill-rule:nonzero;stroke:none;stroke-width:2;stroke-linecap:butt;stroke-linejoin:miter;stroke-miterlimit:4;stroke-dasharray:none;stroke-dashoffset:0;stroke-opacity:1;color-rendering:auto;image-rendering:auto;shape-rendering:auto;text-rendering:auto;enable-background:accumulate;stop-color:#000000;stop-opacity:1"
               d="M 42,31 H 13 C 6.3693039,31 1,36.36933 1,43 v 68 c 0,6.63071 5.3693029,12 12,12 h 102 c 6.63069,0 12,-5.36929 12,-12 V 43 c 0,-6.63067 -5.36931,-12 -12,-12 z"
               transform="translate(-32.000003,207.64957)"
               sodipodi:nodetypes="cssssssscc" />
            <path
               style="color:#000000;font-style:normal;font-variant:normal;font-weight:normal;font-stretch:normal;font-size:medium;line-height:normal;font-family:sans-serif;font-variant-ligatures:normal;font-variant-position:normal;font-variant-caps:normal;font-variant-numeric:normal;font-variant-alternates:normal;font-variant-east-asian:normal;font-feature-settings:normal;font-variation-settings:normal;text-indent:0;text-align:start;text-decoration:none;text-decoration-line:none;text-decoration-style:solid;text-decoration-color:#000000;letter-spacing:normal;word-spacing:normal;text-transform:none;writing-mode:lr-tb;direction:ltr;text-orientation:mixed;dominant-baseline:auto;baseline-shift:baseline;text-anchor:start;white-space:normal;shape-padding:0;shape-margin:0;inline-size:0;clip-rule:nonzero;display:inline;overflow:visible;visibility:visible;isolation:auto;mix-blend-mode:normal;color-interpolation:sRGB;color-interpolation-filters:linearRGB;solid-color:#000000;solid-opacity:1;vector-effect:none;fill:url(#linearGradient1311);fill-opacity:1;fill-rule:nonzero;stroke:none;stroke-width:2;stroke-linecap:butt;stroke-linejoin:miter;stroke-miterlimit:4;stroke-dasharray:none;stroke-dashoffset:0;stroke-opacity:1;color-rendering:auto;image-rendering:auto;shape-rendering:auto;text-rendering:auto;enable-background:accumulate;stop-color:#000000;stop-opacity:1"
               d="m -18.999994,239.64999 29.000009,1e-5 73,-1e-5 c 6.093989,0 10.999989,4.90599 10.999989,10.99995 v 68.00005 c 0,6.09401 -4.906,11 -10.999989,11 H -18.999994 c -6.093995,0 -10.999991,-4.90599 -10.999991,-11 v -68.00005 c 0,-6.09397 4.905996,-10.99995 10.999991,-10.99995 z"
               id="path1042"
               sodipodi:nodetypes="cccssssssc" />
          </g>
        </g>
        <g
           inkscape:label="Capa 1"
           id="layer1-6"
           transform="matrix(0.49999988,0,0,0.49999988,-19.999992,161.32502)"
           style="fill:#5eb1f3;fill-opacity:1">
          <g
             transform="matrix(2,0,0,2,-12,-500.64999)"
             id="g1658"
             style="fill:#5eb1f3;fill-opacity:1" />
          <g
             id="g5226"
             transform="translate(43.999999,22)"
             style="fill:#36a1f6;fill-opacity:1">
            <path
               sodipodi:nodetypes="cccssssccccccccccccssssccccccsssscccccc"
               inkscape:connector-curvature="0"
               id="path4658-1"
               d="m 12.999999,215.64995 -5.9999995,2 v 8.60156 c -0.750002,-0.38211 -1.597449,-0.60156 -2.5,-0.60156 -3.046998,0 -5.5,2.45294 -5.5,5.5 0,3.04694 2.453002,5.5 5.5,5.5 3.047002,0 5.5,-2.45302 5.5,-5.5 0,-0.0711 -0.0071,-0.14064 -0.0098,-0.21094 l 0.0098,0.0117 v -7.30078 -2 l 2.9999995,-1 z m 19,2 -14,5 v 4 6 11 l 0.03711,0.0684 C 16.009988,242.41415 13.599624,241.64999 11,241.64999 c -7.2019945,0 -12.9999995,5.79799 -12.9999995,13 0,7.202 5.798005,13 12.9999995,13 7.202,0 13,-5.798 13,-13 v -23 l 8,-3 z m 10.009766,14.71094 -6,2 v 8.60156 c -0.750002,-0.38211 -1.597449,-0.60156 -2.5,-0.60156 -3.046999,0 -5.5,2.45294 -5.5,5.5 0,3.04694 2.453001,5.5 5.5,5.5 3.047002,0 5.5,-2.45302 5.5,-5.5 0,-0.0711 -0.0071,-0.14064 -0.0098,-0.21094 l 0.0098,0.0117 v -7.30078 -2 l 3,-1 z"
               style="fill:url(#linearGradient930);fill-opacity:1;stroke:none;stroke-width:1px;stroke-linecap:butt;stroke-linejoin:miter;stroke-opacity:1" />
          </g>
        </g>
      </g>
    </g>
  </g>
</svg>
