<?xml version="1.0" encoding="UTF-8" standalone="no"?>
<svg
   xmlns:dc="http://purl.org/dc/elements/1.1/"
   xmlns:cc="http://creativecommons.org/ns#"
   xmlns:rdf="http://www.w3.org/1999/02/22-rdf-syntax-ns#"
   xmlns:svg="http://www.w3.org/2000/svg"
   xmlns="http://www.w3.org/2000/svg"
   xmlns:xlink="http://www.w3.org/1999/xlink"
   xmlns:sodipodi="http://sodipodi.sourceforge.net/DTD/sodipodi-0.dtd"
   xmlns:inkscape="http://www.inkscape.org/namespaces/inkscape"
   width="128"
   height="128"
   viewBox="0 0 128 128"
   version="1.1"
   id="svg8"
   inkscape:version="1.0.1 (3bc2e813f5, 2020-09-07)"
   sodipodi:docname="apple.svg">
  <title
     id="title7895">Antu icon Theme</title>
  <defs
     id="defs2">
    <linearGradient
       inkscape:collect="always"
       xlink:href="#linearGradient2126"
       id="linearGradient941"
       x1="17.197916"
       y1="33.072914"
       x2="16.933332"
       y2="0.5291658"
       gradientUnits="userSpaceOnUse"
       gradientTransform="matrix(3.7795276,0,0,3.7795276,-40,198.64998)" />
    <linearGradient
       id="linearGradient2126"
       inkscape:collect="always">
      <stop
         id="stop2122"
         offset="0"
         style="stop-color:#475057;stop-opacity:1;" />
      <stop
         id="stop2124"
         offset="1"
         style="stop-color:#5e6a73;stop-opacity:1" />
    </linearGradient>
  </defs>
  <sodipodi:namedview
     id="base"
     pagecolor="#ffffff"
     bordercolor="#666666"
     borderopacity="1.0"
     inkscape:pageopacity="0.0"
     inkscape:pageshadow="2"
     inkscape:zoom="7.919596"
     inkscape:cx="53.685134"
     inkscape:cy="64.149806"
     inkscape:document-units="px"
     inkscape:current-layer="g874"
     showgrid="true"
     units="px"
     inkscape:window-width="1920"
     inkscape:window-height="1126"
     inkscape:window-x="0"
     inkscape:window-y="0"
     inkscape:window-maximized="1"
     objecttolerance="10"
     gridtolerance="10"
     guidetolerance="10"
     inkscape:document-rotation="0">
    <inkscape:grid
       type="xygrid"
       id="grid7897"
       empspacing="4" />
  </sodipodi:namedview>
  <metadata
     id="metadata5">
    <rdf:RDF>
      <cc:Work
         rdf:about="">
        <dc:format>image/svg+xml</dc:format>
        <dc:type
           rdf:resource="http://purl.org/dc/dcmitype/StillImage" />
        <dc:title>Antu icon Theme</dc:title>
      </cc:Work>
    </rdf:RDF>
  </metadata>
  <g
     inkscape:label="Capa 1"
     inkscape:groupmode="layer"
     id="layer1"
     transform="translate(0,-186.64999)">
    <g
       id="g874"
       transform="translate(40.000004,-12)">
      <path
         id="rect845"
         style="fill:#343b40;fill-opacity:1;stroke-width:2;stroke-linecap:round;stroke-linejoin:round"
         d="m -9,199.64999 h 65.999992 c 16.62,0 30,13.38 30,30 v 66 c 0,16.62 -13.38,30 -30,30 H -9 c -16.62,0 -30,-13.38 -30,-30 v -66 c 0,-16.62 13.38,-30 30,-30 z" />
      <path
         id="rect845-6"
         style="fill:url(#linearGradient941);fill-opacity:1.0;stroke-width:1.96826;stroke-linecap:round;stroke-linejoin:round"
         d="M -9.0000038,200.64999 H 57.000004 c 16.066,0 29,12.934 29,29 V 295.65 c 0,16.066 -12.934,29 -29,29 H -9.0000038 c -16.0660002,0 -29.0000002,-12.934 -29.0000002,-29 v -66.00001 c 0,-16.066 12.934,-29 29.0000002,-29 z" />
      <g
         id="g847"
         transform="translate(-52.590203,-76.53836)"
         style="stroke:#1c71a7;stroke-opacity:1;stroke-width:2;stroke-miterlimit:4;stroke-dasharray:none" />
      <g
         inkscape:label="Capa 1"
         id="layer1-6"
         transform="translate(-40.000004,12)"
         style="fill:#222222;fill-opacity:1">
        <g
           id="g1525"
           transform="translate(-32,-4)"
           style="fill:#222222;fill-opacity:1" />
        <g
           style="overflow:visible;fill:#222222;fill-opacity:1"
           id="g845"
           transform="matrix(0.12771482,0,0,0.12771482,32.552891,213.53416)">
          <g
             transform="matrix(0.9869271,0,0,0.99106002,3.5008005,0.90716963)"
             id="g3"
             style="fill:#222222;fill-opacity:1" />
        </g>
        <path
           id="path833"
           d="m 91.375992,268.75986 c -1.088857,2.51547 -2.377708,4.83096 -3.870999,6.95978 -2.035491,2.90214 -3.702107,4.91097 -4.986515,6.02649 -1.991047,1.83106 -4.124315,2.76881 -6.40869,2.82214 -1.639954,0 -3.617671,-0.46665 -5.91983,-1.4133 -2.309698,-0.94219 -4.432311,-1.40884 -6.373133,-1.40884 -2.035501,0 -4.218542,0.46665 -6.553584,1.40884 -2.338601,0.94665 -4.222544,1.43996 -5.662945,1.48885 -2.1906,0.0933 -4.374083,-0.87109 -6.553574,-2.89769 -1.391071,-1.2133 -3.131025,-3.29323 -5.215403,-6.23981 -2.236373,-3.14658 -4.074985,-6.79535 -5.515386,-10.95523 C 32.773311,260.05789 32,255.70691 32,251.49459 c 0,-4.82518 1.042632,-8.98683 3.131013,-12.47429 1.641292,-2.80124 3.824774,-5.01095 6.557586,-6.63313 2.732802,-1.62217 5.685604,-2.44882 8.865505,-2.5017 1.739953,0 4.021664,0.53821 6.857127,1.59595 2.827471,1.0613 4.642972,1.59951 5.438953,1.59951 0.59509,0 2.611924,-0.62932 6.030927,-1.88394 3.233242,-1.16352 5.962043,-1.64529 8.19753,-1.45551 6.057597,0.48887 10.608574,2.8768 13.635147,7.17889 -5.41761,3.28256 -8.097533,7.88021 -8.044201,13.77825 0.04886,4.59409 1.715502,8.41708 4.990958,11.45254 1.484404,1.40885 3.142132,2.49771 4.986525,3.27102 -0.39999,1.15996 -0.822199,2.27104 -1.271078,3.33768 z M 77.483075,214.09039 c 0,3.60082 -1.315512,6.9629 -3.93766,10.07481 -3.164349,3.69944 -6.991787,5.83715 -11.142331,5.49983 -0.05287,-0.43199 -0.08352,-0.88664 -0.08352,-1.36441 0,-3.45678 1.504842,-7.15622 4.177204,-10.18103 1.334181,-1.5315 3.031026,-2.80493 5.088735,-3.82077 2.053276,-1.00068 3.995435,-1.55408 5.822055,-1.64883 0.05338,0.48136 0.0756,0.96276 0.0756,1.44035 z"
           inkscape:connector-curvature="0"
           style="fill:#222222;fill-opacity:1;stroke-width:0.444431" />
      </g>
    </g>
  </g>
</svg>
