<?xml version="1.0" encoding="UTF-8" standalone="no"?>
<svg
   xmlns:dc="http://purl.org/dc/elements/1.1/"
   xmlns:cc="http://creativecommons.org/ns#"
   xmlns:rdf="http://www.w3.org/1999/02/22-rdf-syntax-ns#"
   xmlns:svg="http://www.w3.org/2000/svg"
   xmlns="http://www.w3.org/2000/svg"
   xmlns:xlink="http://www.w3.org/1999/xlink"
   xmlns:sodipodi="http://sodipodi.sourceforge.net/DTD/sodipodi-0.dtd"
   xmlns:inkscape="http://www.inkscape.org/namespaces/inkscape"
   width="128"
   height="128"
   viewBox="0 0 128 128"
   version="1.1"
   id="svg8"
   inkscape:version="1.0.1 (3bc2e813f5, 2020-09-07)"
   sodipodi:docname="arch.svg">
  <title
     id="title7895">Antu icon Theme</title>
  <defs
     id="defs2">
    <linearGradient
       inkscape:collect="always"
       xlink:href="#linearGradient4565"
       id="linearGradient941"
       x1="17.197916"
       y1="33.072914"
       x2="16.933332"
       y2="0.5291658"
       gradientUnits="userSpaceOnUse"
       gradientTransform="matrix(3.7795276,0,0,3.7795276,-40,198.64998)" />
    <linearGradient
       inkscape:collect="always"
       id="linearGradient4565">
      <stop
         style="stop-color:#1780f2;stop-opacity:1"
         offset="0"
         id="stop4561" />
      <stop
         style="stop-color:#02b3fe;stop-opacity:1"
         offset="1"
         id="stop4563" />
    </linearGradient>
  </defs>
  <sodipodi:namedview
     id="base"
     pagecolor="#ffffff"
     bordercolor="#666666"
     borderopacity="1.0"
     inkscape:pageopacity="0.0"
     inkscape:pageshadow="2"
     inkscape:zoom="15.839192"
     inkscape:cx="71.016772"
     inkscape:cy="46.477335"
     inkscape:document-units="px"
     inkscape:current-layer="g874"
     showgrid="true"
     units="px"
     inkscape:window-width="1920"
     inkscape:window-height="1126"
     inkscape:window-x="0"
     inkscape:window-y="0"
     inkscape:window-maximized="1"
     objecttolerance="10"
     gridtolerance="10"
     guidetolerance="10"
     inkscape:document-rotation="0">
    <inkscape:grid
       type="xygrid"
       id="grid7897"
       empspacing="4" />
  </sodipodi:namedview>
  <metadata
     id="metadata5">
    <rdf:RDF>
      <cc:Work
         rdf:about="">
        <dc:format>image/svg+xml</dc:format>
        <dc:type
           rdf:resource="http://purl.org/dc/dcmitype/StillImage" />
        <dc:title>Antu icon Theme</dc:title>
      </cc:Work>
    </rdf:RDF>
  </metadata>
  <g
     inkscape:label="Capa 1"
     inkscape:groupmode="layer"
     id="layer1"
     transform="translate(0,-186.64999)">
    <g
       id="g874"
       transform="translate(40.000004,-12)">
      <path
         id="rect845"
         style="fill:#1463bf;fill-opacity:1;stroke-width:2;stroke-linecap:round;stroke-linejoin:round"
         d="m -9,199.64999 h 65.999992 c 16.62,0 30,13.38 30,30 v 66 c 0,16.62 -13.38,30 -30,30 H -9 c -16.62,0 -30,-13.38 -30,-30 v -66 c 0,-16.62 13.38,-30 30,-30 z" />
      <path
         id="rect845-6"
         style="fill:url(#linearGradient941);fill-opacity:1.0;stroke-width:1.96826;stroke-linecap:round;stroke-linejoin:round"
         d="M -9.0000038,200.64999 H 57.000004 c 16.066,0 29,12.934 29,29 V 295.65 c 0,16.066 -12.934,29 -29,29 H -9.0000038 c -16.0660002,0 -29.0000002,-12.934 -29.0000002,-29 v -66.00001 c 0,-16.066 12.934,-29 29.0000002,-29 z" />
      <g
         id="g847"
         transform="translate(-52.590203,-76.53836)"
         style="stroke:#1c71a7;stroke-opacity:1;stroke-width:2;stroke-miterlimit:4;stroke-dasharray:none" />
      <g
         id="g1525"
         transform="translate(-72.000004,8)"
         style="fill:#0c58b0;fill-opacity:1;stroke:#1463bf;stroke-opacity:1;stroke-linejoin:round;stroke-linecap:square;stroke-width:2;stroke-miterlimit:4;stroke-dasharray:none">
        <g
           id="g921"
           style="opacity:1;fill:#0c58b0;fill-opacity:1">
          <path
             id="path923"
             style="color:#000000;font-style:normal;font-variant:normal;font-weight:normal;font-stretch:normal;font-size:medium;line-height:normal;font-family:sans-serif;font-variant-ligatures:normal;font-variant-position:normal;font-variant-caps:normal;font-variant-numeric:normal;font-variant-alternates:normal;font-variant-east-asian:normal;font-feature-settings:normal;font-variation-settings:normal;text-indent:0;text-align:start;text-decoration:none;text-decoration-line:none;text-decoration-style:solid;text-decoration-color:#000000;letter-spacing:normal;word-spacing:normal;text-transform:none;writing-mode:lr-tb;direction:ltr;text-orientation:mixed;dominant-baseline:auto;baseline-shift:baseline;text-anchor:start;white-space:normal;shape-padding:0;shape-margin:0;inline-size:0;clip-rule:nonzero;display:inline;overflow:visible;visibility:visible;isolation:auto;mix-blend-mode:normal;color-interpolation:sRGB;color-interpolation-filters:linearRGB;solid-color:#000000;solid-opacity:1;vector-effect:none;fill:#0c58b0;fill-opacity:1;fill-rule:evenodd;stroke:none;stroke-width:2;stroke-linecap:square;stroke-linejoin:round;stroke-miterlimit:4;stroke-dasharray:none;stroke-dashoffset:0;stroke-opacity:1;color-rendering:auto;image-rendering:auto;shape-rendering:auto;text-rendering:auto;enable-background:accumulate;stop-color:#000000;stop-opacity:1"
             d="M 63.947266 27 A 1.0001 1.0001 0 0 0 63.039062 27.724609 C 54.372007 58.059249 28.167969 97.445312 28.167969 97.445312 A 1.0001 1.0001 0 0 0 29.554688 98.832031 C 39.361687 92.293981 47.768816 89.068293 55.996094 87.470703 A 1.0001 1.0001 0 0 0 56.759766 86.193359 C 56.678512 85.931579 56.606608 85.664521 56.542969 85.394531 C 56.472278 85.072591 56.414091 84.745736 56.369141 84.416016 L 56.369141 84.414062 C 56.324262 84.082012 56.291655 83.746476 56.273438 83.410156 A 1.0001 1.0001 0 0 0 56.273438 83.402344 C 56.258752 83.163894 56.251156 82.924757 56.25 82.685547 L 56.25 82.683594 C 56.25 82.683594 56.25 82.681641 56.25 82.681641 C 56.249809 82.344411 56.262391 82.007305 56.289062 81.671875 C 56.315175 81.339705 56.356074 81.008561 56.408203 80.681641 C 56.463577 80.350791 56.531891 80.024675 56.613281 79.703125 A 1.0001 1.0001 0 0 0 56.613281 79.697266 C 56.692656 79.376126 56.784408 79.060653 56.888672 78.751953 A 1.0001 1.0001 0 0 0 56.890625 78.746094 C 56.992805 78.437644 57.106744 78.13685 57.232422 77.84375 L 57.236328 77.835938 C 57.364822 77.545588 57.504163 77.263827 57.654297 76.992188 A 1.0001 1.0001 0 0 0 57.65625 76.988281 C 57.806621 76.713351 57.968089 76.448572 58.138672 76.195312 L 58.136719 76.201172 C 58.307754 75.949932 58.486882 75.709542 58.675781 75.482422 A 1.0001 1.0001 0 0 0 58.685547 75.472656 C 58.868271 75.246846 59.057864 75.032971 59.255859 74.832031 L 59.261719 74.826172 C 59.26363 74.824242 59.265666 74.822252 59.267578 74.820312 C 59.469847 74.623192 59.679501 74.439461 59.894531 74.269531 A 1.0001 1.0001 0 0 0 59.902344 74.263672 C 60.120413 74.088112 60.343187 73.92738 60.572266 73.78125 C 60.799225 73.63701 61.030262 73.507048 61.265625 73.392578 C 61.502287 73.278318 61.741533 73.179323 61.984375 73.095703 A 1.0001 1.0001 0 0 0 61.986328 73.095703 C 62.229883 73.011333 62.474955 72.943845 62.722656 72.890625 A 1.0001 1.0001 0 0 0 62.728516 72.888672 C 62.97495 72.834252 63.223955 72.794894 63.472656 72.771484 C 63.648286 72.755934 63.824054 72.748107 64 72.748047 A 1.0001 1.0001 0 0 0 64.003906 72.748047 C 64.251412 72.747167 64.499415 72.763229 64.746094 72.792969 C 64.748034 72.793199 64.750013 72.792729 64.751953 72.792969 C 64.996156 72.826429 65.239065 72.87405 65.480469 72.9375 A 1.0001 1.0001 0 0 0 65.498047 72.941406 C 65.746331 73.002076 65.992713 73.079765 66.236328 73.171875 C 66.473776 73.264525 66.708709 73.371891 66.939453 73.494141 C 67.173877 73.619121 67.403761 73.759182 67.628906 73.914062 C 67.853833 74.068492 68.073819 74.238655 68.287109 74.421875 A 1.0001 1.0001 0 0 0 68.292969 74.425781 C 68.508049 74.607431 68.716859 74.804332 68.917969 75.013672 C 69.117009 75.222622 69.309378 75.445317 69.492188 75.679688 C 69.672628 75.913988 69.845692 76.160889 70.007812 76.417969 A 1.0001 1.0001 0 0 0 70.011719 76.423828 C 70.177619 76.682978 70.333356 76.952232 70.478516 77.232422 C 70.622246 77.512062 70.75369 77.802079 70.875 78.099609 C 70.99321 78.396409 71.100812 78.700639 71.195312 79.011719 A 1.0001 1.0001 0 0 0 71.199219 79.023438 C 71.298639 79.337877 71.385134 79.658095 71.458984 79.984375 C 71.529224 80.305015 71.586149 80.630634 71.630859 80.958984 C 71.675769 81.291034 71.708322 81.626561 71.726562 81.962891 A 1.0001 1.0001 0 0 0 71.726562 81.970703 C 71.741342 82.210453 71.7489 82.450886 71.75 82.691406 C 71.75019 83.028636 71.737607 83.365732 71.710938 83.701172 C 71.684618 84.035932 71.644537 84.369809 71.591797 84.699219 C 71.536657 85.027339 71.467449 85.350972 71.386719 85.669922 C 71.340989 85.846342 71.291621 86.020639 71.238281 86.193359 A 1.0001 1.0001 0 0 0 72.003906 87.470703 C 80.231166 89.068283 88.638332 92.292068 98.445312 98.830078 A 1.0001 1.0001 0 0 0 99.832031 97.443359 C 99.832031 97.443359 73.627999 58.059329 64.960938 27.724609 A 1.0001 1.0001 0 0 0 63.947266 27 z "
             transform="translate(32,190.64999)" />
        </g>
      </g>
    </g>
  </g>
</svg>
