<?xml version="1.0" encoding="UTF-8" standalone="no"?>
<svg
   xmlns:ns2="http://ns.adobe.com/AdobeIllustrator/10.0/"
   xmlns:dc="http://purl.org/dc/elements/1.1/"
   xmlns:cc="http://creativecommons.org/ns#"
   xmlns:rdf="http://www.w3.org/1999/02/22-rdf-syntax-ns#"
   xmlns:svg="http://www.w3.org/2000/svg"
   xmlns="http://www.w3.org/2000/svg"
   xmlns:xlink="http://www.w3.org/1999/xlink"
   xmlns:sodipodi="http://sodipodi.sourceforge.net/DTD/sodipodi-0.dtd"
   xmlns:inkscape="http://www.inkscape.org/namespaces/inkscape"
   width="128"
   height="128"
   viewBox="0 0 128 128"
   version="1.1"
   id="svg8"
   inkscape:version="1.0.1 (3bc2e813f5, 2020-09-07)"
   sodipodi:docname="debian.svg">
  <title
     id="title7895">Antu icon Theme</title>
  <defs
     id="defs2">
    <linearGradient
       inkscape:collect="always"
       xlink:href="#linearGradient875"
       id="linearGradient941"
       x1="17.197916"
       y1="33.072914"
       x2="16.933332"
       y2="0.5291658"
       gradientUnits="userSpaceOnUse"
       gradientTransform="matrix(3.7795276,0,0,3.7795276,-40,198.64998)" />
    <linearGradient
       inkscape:collect="always"
       id="linearGradient875">
      <stop
         style="stop-color:#ef4274;stop-opacity:1"
         offset="0"
         id="stop871" />
      <stop
         style="stop-color:#fc6893;stop-opacity:1"
         offset="1"
         id="stop873" />
    </linearGradient>
  </defs>
  <sodipodi:namedview
     id="base"
     pagecolor="#ffffff"
     bordercolor="#666666"
     borderopacity="1.0"
     inkscape:pageopacity="0.0"
     inkscape:pageshadow="2"
     inkscape:zoom="2.8"
     inkscape:cx="7.4929753"
     inkscape:cy="83.834358"
     inkscape:document-units="px"
     inkscape:current-layer="g874"
     showgrid="true"
     units="px"
     inkscape:window-width="1920"
     inkscape:window-height="1126"
     inkscape:window-x="0"
     inkscape:window-y="0"
     inkscape:window-maximized="1"
     objecttolerance="10"
     gridtolerance="10"
     guidetolerance="10"
     inkscape:document-rotation="0">
    <inkscape:grid
       type="xygrid"
       id="grid7897"
       empspacing="4" />
  </sodipodi:namedview>
  <metadata
     id="metadata5">
    <rdf:RDF>
      <cc:Work
         rdf:about="">
        <dc:format>image/svg+xml</dc:format>
        <dc:type
           rdf:resource="http://purl.org/dc/dcmitype/StillImage" />
        <dc:title>Antu icon Theme</dc:title>
      </cc:Work>
    </rdf:RDF>
  </metadata>
  <g
     inkscape:label="Capa 1"
     inkscape:groupmode="layer"
     id="layer1"
     transform="translate(0,-186.64999)">
    <g
       id="g874"
       transform="translate(40.000004,-12)">
      <path
         id="rect845"
         style="fill:#a5284b;fill-opacity:1;stroke-width:2;stroke-linecap:round;stroke-linejoin:round"
         d="m -9,199.64999 h 65.999992 c 16.62,0 30,13.38 30,30 v 66 c 0,16.62 -13.38,30 -30,30 H -9 c -16.62,0 -30,-13.38 -30,-30 v -66 c 0,-16.62 13.38,-30 30,-30 z" />
      <path
         id="rect845-6"
         style="fill:url(#linearGradient941);fill-opacity:1.0;stroke-width:1.96826;stroke-linecap:round;stroke-linejoin:round"
         d="M -9.0000038,200.64999 H 57.000004 c 16.066,0 29,12.934 29,29 V 295.65 c 0,16.066 -12.934,29 -29,29 H -9.0000038 c -16.0660002,0 -29.0000002,-12.934 -29.0000002,-29 v -66.00001 c 0,-16.066 12.934,-29 29.0000002,-29 z" />
      <g
         id="g847"
         transform="translate(-52.590203,-76.53836)"
         style="stroke:#1c71a7;stroke-opacity:1;stroke-width:2;stroke-miterlimit:4;stroke-dasharray:none" />
      <path
         style="overflow:visible;fill:#9f2447;fill-opacity:1;stroke-width:2;stroke:#9f2447;stroke-opacity:1;stroke-miterlimit:4;stroke-dasharray:none;stroke-linejoin:round;stroke-linecap:round"
         inkscape:connector-curvature="0"
         ns2:knockout="Off"
         d="m 51.859534,255.74344 c 0.09077,2.46523 -0.721076,3.66137 -1.45318,5.77879 l -1.317449,0.6583 c -1.078221,2.09367 0.104344,1.32933 -0.667632,2.99459 -1.683077,1.49645 -5.107765,4.68275 -6.203801,4.97373 -0.79997,-0.0178 0.54208,-0.94419 0.717683,-1.30727 -2.253151,1.54735 -1.80778,2.32271 -5.253677,3.26266 l -0.10095,-0.22396 c -8.498521,3.99816 -20.303812,-3.9252 -20.148568,-14.73625 -0.09077,0.68629 -0.257891,0.51493 -0.446219,0.79233 -0.438584,-5.56247 2.568728,-11.14953 7.640863,-13.43068 4.961005,-2.4559 10.777122,-1.44809 14.330755,1.86377 -1.951996,-2.55685 -5.837324,-5.26725 -10.442033,-5.0136 -4.510544,0.0713 -8.730113,2.93775 -10.138332,6.04941 -2.310837,1.45487 -2.578908,5.60827 -3.58587,6.36837 -1.354775,9.95679 2.548368,14.25865 9.150882,19.31891 1.039198,0.70071 0.292672,0.80675 0.433494,1.34035 -2.193768,-1.02732 -4.202602,-2.57806 -5.854291,-4.47661 0.87632,1.28267 1.822202,2.5297 3.044639,3.50952 -2.068217,-0.70072 -4.831211,-5.0119 -5.637968,-5.18751 3.56551,6.38365 14.465638,11.19535 20.173169,8.80816 -2.640836,0.0976 -5.995962,0.0543 -8.963403,-1.04259 -1.246189,-0.64133 -2.941142,-1.96981 -2.63829,-2.21837 7.78932,2.90976 15.835683,2.20395 22.575625,-3.19903 1.714465,-1.33527 3.587567,-3.60708 4.128798,-3.63847 -0.81524,1.22583 0.139126,0.58959 -0.486938,1.67205 1.708526,-2.75536 -0.742285,-1.12149 1.766212,-4.75826 l 0.926371,1.27588 c -0.34442,-2.28708 2.840193,-5.0645 2.516981,-8.68175 0.730408,-1.10622 0.81524,1.1902 0.03987,3.73517 1.075676,-2.82322 0.283341,-3.27708 0.559894,-5.60658 0.298611,0.78301 0.690537,1.61521 0.89159,2.44148 -0.700716,-2.72821 0.71938,-4.59453 1.070586,-6.18005 -0.346116,-0.15354 -1.081614,1.20632 -1.249582,-2.01647 0.0246,-1.39973 0.389381,-0.7338 0.530203,-1.07822 -0.274858,-0.15779 -0.995934,-1.23092 -1.434518,-3.28895 0.318122,-0.48355 0.850022,1.25382 1.282667,1.32508 -0.27825,-1.63642 -0.757554,-2.8843 -0.777065,-4.13983 -1.264005,-2.64168 -0.447068,0.35206 -1.472693,-1.13421 -1.345443,-4.19666 1.116396,-0.97387 1.282668,-2.88091 2.039373,2.95472 3.202427,7.53398 3.736023,9.43083 -0.407196,-2.31253 -1.065496,-4.55296 -1.86886,-6.72042 0.619278,0.26043 -0.99763,-4.75826 0.805061,-1.43452 -1.925697,-7.08521 -8.241477,-13.70554 -14.051655,-16.8121 0.710896,0.65066 1.608424,1.4676 1.286061,1.5957 -2.889395,-1.72041 -2.381249,-1.85444 -2.795231,-2.58146 -2.354102,-0.95775 -2.508497,0.0772 -4.067719,0.002 -4.43674,-2.35325 -5.291851,-2.10299 -9.37484,-3.57738 l 0.185784,0.86783 c -2.939447,-0.97897 -3.424689,0.37157 -6.601666,0.003 -0.193418,-0.151 1.01799,-0.54632 2.014772,-0.69138 -2.841889,0.37495 -2.708702,-0.5599 -5.489511,0.10348 0.685446,-0.48099 1.409916,-0.79911 2.141172,-1.20801 -2.317624,0.14082 -5.532776,1.34884 -4.540235,0.25026 -3.780137,1.68648 -10.493781,4.05414 -14.261192,7.58657 l -0.118766,-0.79149 c -1.726341,2.07246 -7.528036,6.18938 -7.990373,8.87348 l -0.461489,0.10774 c -0.898376,1.52104 -1.479479,3.24484 -2.192072,4.81 -1.17493,2.00205 -1.7221,0.77029 -1.55498,1.08416 -2.310837,4.6853 -3.458621,8.62237 -4.450313,11.8511 0.706655,1.05616 0.01697,6.3582 0.284189,10.60152 -1.160509,20.95702 14.708259,41.30494 32.053961,46.00297 2.54243,0.9094 6.323415,0.87462 9.539415,0.96794 -3.794558,-1.08501 -4.28489,-0.57517 -7.981042,-1.86377 -2.666285,-1.25551 -3.250781,-2.68919 -5.139153,-4.32816 l 0.747375,1.32084 c -3.703788,-1.31066 -2.153898,-1.62199 -5.167148,-2.57636 l 0.798274,-1.04259 c -1.20038,-0.0908 -3.179523,-2.02326 -3.720754,-3.09299 l -1.313207,0.0518 C 5.524021,294.5161 4.683331,293.11297 4.744411,292.02627 l -0.424163,0.75585 c -0.481,-0.82542 -5.805088,-7.30153 -3.042942,-5.79406 -0.513236,-0.46912 -1.19529,-0.76349 -1.935029,-2.10724 l 0.562439,-0.64303 c -1.329325,-1.71022 -2.446569,-3.90229 -2.361737,-4.6327 0.7092,0.95776 1.201229,1.13676 1.688167,1.30048 -3.356822,-8.32885 -3.54515,-0.45894 -6.08758,-8.47816 l 0.537838,-0.0433 c -0.412286,-0.62097 -0.662542,-1.29539 -0.994237,-1.95708 l 0.234138,-2.33289 c -2.416878,-2.79439 -0.676115,-11.88164 -0.327454,-16.86555 0.241773,-2.02664 2.017317,-4.18394 3.367851,-7.56706 l -0.822876,-0.14167 c 1.572795,-2.74349 8.980369,-11.01805 12.410996,-10.59219 1.661868,-2.08773 -0.329999,-0.008 -0.654907,-0.5336 3.650342,-3.77759 4.798126,-2.66883 7.261662,-3.34834 2.656954,-1.57703 -2.280298,0.61504 -1.020535,-0.60146 4.592832,-1.17323 3.255023,-2.66713 9.246743,-3.26266 0.632002,0.35969 -1.466754,0.55566 -1.993564,1.02224 3.826794,-1.87226 12.10984,-1.4464 17.489917,1.03919 6.242824,2.91739 13.256775,11.54147 13.533329,19.6557 l 0.314729,0.0848 c -0.159485,3.22533 0.493725,6.95541 -0.637941,10.3818 l 0.770279,-1.622"
         id="path891-9" />
    </g>
  </g>
</svg>
