<?xml version="1.0" encoding="UTF-8" standalone="no"?>
<svg
   xmlns:dc="http://purl.org/dc/elements/1.1/"
   xmlns:cc="http://creativecommons.org/ns#"
   xmlns:rdf="http://www.w3.org/1999/02/22-rdf-syntax-ns#"
   xmlns:svg="http://www.w3.org/2000/svg"
   xmlns="http://www.w3.org/2000/svg"
   xmlns:xlink="http://www.w3.org/1999/xlink"
   xmlns:sodipodi="http://sodipodi.sourceforge.net/DTD/sodipodi-0.dtd"
   xmlns:inkscape="http://www.inkscape.org/namespaces/inkscape"
   width="128"
   height="128"
   viewBox="0 0 128 128"
   version="1.1"
   id="svg8"
   inkscape:version="1.0.1 (3bc2e813f5, 2020-09-07)"
   sodipodi:docname="elementaryos.svg">
  <title
     id="title7895">Antu icon Theme</title>
  <defs
     id="defs2">
    <linearGradient
       inkscape:collect="always"
       xlink:href="#linearGradient878"
       id="linearGradient941"
       x1="17.197916"
       y1="33.072914"
       x2="16.933332"
       y2="0.5291658"
       gradientUnits="userSpaceOnUse"
       gradientTransform="matrix(3.7795276,0,0,3.7795276,-40,198.64998)" />
    <linearGradient
       inkscape:collect="always"
       id="linearGradient878">
      <stop
         style="stop-color:#3a9ae7;stop-opacity:1"
         offset="0"
         id="stop874" />
      <stop
         style="stop-color:#5ec6eb;stop-opacity:1"
         offset="1"
         id="stop876" />
    </linearGradient>
  </defs>
  <sodipodi:namedview
     id="base"
     pagecolor="#ffffff"
     bordercolor="#666666"
     borderopacity="1.0"
     inkscape:pageopacity="0.0"
     inkscape:pageshadow="2"
     inkscape:zoom="3.959798"
     inkscape:cx="72.82982"
     inkscape:cy="42.50611"
     inkscape:document-units="px"
     inkscape:current-layer="g874"
     showgrid="true"
     units="px"
     inkscape:window-width="1920"
     inkscape:window-height="1126"
     inkscape:window-x="0"
     inkscape:window-y="0"
     inkscape:window-maximized="1"
     objecttolerance="10"
     gridtolerance="10"
     guidetolerance="10"
     inkscape:document-rotation="0">
    <inkscape:grid
       type="xygrid"
       id="grid7897"
       empspacing="4" />
  </sodipodi:namedview>
  <metadata
     id="metadata5">
    <rdf:RDF>
      <cc:Work
         rdf:about="">
        <dc:format>image/svg+xml</dc:format>
        <dc:type
           rdf:resource="http://purl.org/dc/dcmitype/StillImage" />
        <dc:title>Antu icon Theme</dc:title>
      </cc:Work>
    </rdf:RDF>
  </metadata>
  <g
     inkscape:label="Capa 1"
     inkscape:groupmode="layer"
     id="layer1"
     transform="translate(0,-186.64999)">
    <g
       id="g874"
       transform="translate(40.000004,-12)">
      <path
         id="rect845"
         style="fill:#1c71a7;fill-opacity:1;stroke-width:2;stroke-linecap:round;stroke-linejoin:round"
         d="m -9,199.64999 h 65.999992 c 16.62,0 30,13.38 30,30 v 66 c 0,16.62 -13.38,30 -30,30 H -9 c -16.62,0 -30,-13.38 -30,-30 v -66 c 0,-16.62 13.38,-30 30,-30 z" />
      <path
         id="rect845-6"
         style="fill:url(#linearGradient941);fill-opacity:1;stroke-width:1.96826;stroke-linecap:round;stroke-linejoin:round"
         d="M -9.0000038,200.64999 H 57.000004 c 16.066,0 29,12.934 29,29 V 295.65 c 0,16.066 -12.934,29 -29,29 H -9.0000038 c -16.0660002,0 -29.0000002,-12.934 -29.0000002,-29 v -66.00001 c 0,-16.066 12.934,-29 29.0000002,-29 z" />
      <g
         id="g847"
         transform="translate(-52.590203,-76.53836)"
         style="stroke:#1c71a7;stroke-opacity:1;stroke-width:2;stroke-miterlimit:4;stroke-dasharray:none">
        <path
           inkscape:connector-curvature="0"
           style="color:#000000;display:inline;overflow:visible;visibility:visible;fill:#1c71a7;fill-opacity:1;fill-rule:nonzero;stroke:#1c71a7;stroke-width:2;marker:none;enable-background:accumulate;stroke-opacity:1;stroke-miterlimit:4;stroke-dasharray:none"
           id="path2993-5"
           d="m 76.590201,293.18834 c -25.40509,0 -45.999986,20.59491 -45.999986,46.00003 0,25.40511 20.594896,45.99999 45.999986,45.99999 25.405089,0 45.999979,-20.59488 45.999979,-45.99999 0,-25.40512 -20.59489,-46.00003 -45.999979,-46.00003 z m 0,3.83335 c 19.314992,0 35.596909,12.9871 40.590199,30.705 -4.30072,8.87066 -10.42032,16.85744 -17.872907,23.31148 -3.58015,3.10038 -7.48893,5.86431 -11.80667,7.81039 -4.31773,1.94608 -9.066924,3.05031 -13.795204,2.77917 -3.552449,-0.20334 -7.061695,-1.19331 -10.172709,-2.9181 8.244749,-4.46755 15.683836,-10.42417 21.773333,-17.5567 3.99702,-4.6817 7.49411,-10.00222 8.84062,-16.00895 0.67325,-3.0034 0.78735,-6.1488 0.15813,-9.16172 -0.62922,-3.01289 -2.02226,-5.88408 -4.1304,-8.12663 -2.05954,-2.19084 -4.76324,-3.74287 -7.66188,-4.54258 -2.898642,-0.79959 -5.983303,-0.86158 -8.941248,-0.32126 -5.915883,1.0811 -11.197686,4.51934 -15.433952,8.7879 -7.467023,7.52394 -12.083219,18.14041 -11.236456,28.70691 0.42339,5.28321 2.193862,10.47469 5.22771,14.82062 0.677196,0.96998 1.421684,1.89407 2.218536,2.76956 -4.419663,1.54674 -8.995867,2.64779 -13.637076,3.26793 -3.984799,-6.43887 -6.286667,-14.02809 -6.286667,-22.15672 0,-23.28798 18.878654,-42.16664 42.166655,-42.16664 z m 0.268336,8.51958 c 2.964145,0.004 5.948436,0.90142 8.313536,2.68812 2.13085,1.60977 3.70974,3.89994 4.60479,6.41605 0.89505,2.51611 1.12476,5.2484 0.81938,7.90144 -0.61076,5.30608 -3.28753,10.17218 -6.52146,14.42294 -5.726085,7.52648 -13.337208,13.55052 -21.802077,17.76752 -0.866449,0.43144 -1.746625,0.84186 -2.630625,1.23621 -1.841891,-1.61181 -3.420592,-3.52358 -4.623956,-5.65421 -2.514475,-4.45194 -3.343673,-9.74048 -2.855836,-14.83018 0.487846,-5.08967 2.234499,-9.99504 4.580834,-14.53788 2.720474,-5.2673 6.428705,-10.25647 11.619786,-13.11961 2.595543,-1.43154 5.531473,-2.2944 8.495628,-2.2904 z m 41.519773,28.00249 c 0.24706,1.84656 0.37853,3.73047 0.37853,5.64461 0,23.28797 -18.878647,42.16664 -42.166647,42.16664 -13.078776,0 -24.76758,-5.95393 -32.501863,-15.29979 4.773821,-1.08424 9.439645,-2.64167 13.914994,-4.62395 1.957108,1.49053 4.11849,2.71294 6.41604,3.59376 6.616485,2.53663 14.128413,2.16956 20.824579,-0.14853 6.69617,-2.31814 12.63416,-6.47891 17.810617,-11.31788 6.16651,-5.76461 11.36568,-12.5591 15.32375,-20.01486 z" />
      </g>
    </g>
  </g>
</svg>
