<?xml version="1.0" encoding="UTF-8" standalone="no"?>
<svg
   xmlns:dc="http://purl.org/dc/elements/1.1/"
   xmlns:cc="http://creativecommons.org/ns#"
   xmlns:rdf="http://www.w3.org/1999/02/22-rdf-syntax-ns#"
   xmlns:svg="http://www.w3.org/2000/svg"
   xmlns="http://www.w3.org/2000/svg"
   xmlns:xlink="http://www.w3.org/1999/xlink"
   xmlns:sodipodi="http://sodipodi.sourceforge.net/DTD/sodipodi-0.dtd"
   xmlns:inkscape="http://www.inkscape.org/namespaces/inkscape"
   width="128"
   height="128"
   viewBox="0 0 128 128"
   version="1.1"
   id="svg8"
   inkscape:version="1.0.1 (3bc2e81, 2020-09-07)"
   sodipodi:docname="mageia.svg">
  <title
     id="title7895">Antu icon Theme</title>
  <defs
     id="defs2">
    <linearGradient
       inkscape:collect="always"
       xlink:href="#linearGradient857"
       id="linearGradient1680"
       gradientUnits="userSpaceOnUse"
       x1="17.197916"
       y1="33.072914"
       x2="16.933332"
       y2="0.5291658"
       gradientTransform="matrix(3.7795276,0,0,3.7795276,60,258.64999)" />
    <linearGradient
       inkscape:collect="always"
       id="linearGradient857">
      <stop
         style="stop-color:#007db0;stop-opacity:1"
         offset="0"
         id="stop853-1" />
      <stop
         style="stop-color:#00a5e9;stop-opacity:1"
         offset="1"
         id="stop855-2" />
    </linearGradient>
  </defs>
  <sodipodi:namedview
     id="base"
     pagecolor="#ffffff"
     bordercolor="#666666"
     borderopacity="1.0"
     inkscape:pageopacity="0.0"
     inkscape:pageshadow="2"
     inkscape:zoom="3.959798"
     inkscape:cx="-45.021451"
     inkscape:cy="60.192875"
     inkscape:document-units="px"
     inkscape:current-layer="layer1"
     showgrid="true"
     units="px"
     inkscape:window-width="1920"
     inkscape:window-height="1126"
     inkscape:window-x="0"
     inkscape:window-y="0"
     inkscape:window-maximized="1"
     objecttolerance="10"
     gridtolerance="10"
     guidetolerance="10"
     inkscape:document-rotation="0">
    <inkscape:grid
       type="xygrid"
       id="grid7897"
       empspacing="4" />
  </sodipodi:namedview>
  <metadata
     id="metadata5">
    <rdf:RDF>
      <cc:Work
         rdf:about="">
        <dc:format>image/svg+xml</dc:format>
        <dc:type
           rdf:resource="http://purl.org/dc/dcmitype/StillImage" />
        <dc:title>Antu icon Theme</dc:title>
      </cc:Work>
    </rdf:RDF>
  </metadata>
  <g
     inkscape:label="Capa 1"
     inkscape:groupmode="layer"
     id="layer1"
     transform="translate(0,-186.64999)">
    <g
       id="g866"
       transform="translate(-59.999995,-71.999995)">
      <path
         id="rect845"
         style="fill:#006b98;fill-opacity:1;stroke-width:2;stroke-linecap:round;stroke-linejoin:round"
         d="m 91,259.64999 h 65.99999 c 16.62,0 30,13.38 30,30 v 65.99999 c 0,16.62 -13.38,30 -30,30 H 91 c -16.62,0 -30,-13.38 -30,-30 v -65.99999 c 0,-16.62 13.38,-30 30,-30 z" />
      <path
         id="rect845-6"
         style="fill:url(#linearGradient1680);fill-opacity:1;stroke-width:1.96826;stroke-linecap:round;stroke-linejoin:round"
         d="M 90.999996,260.64999 H 157 c 16.066,0 29,12.934 29,29 v 66 c 0,16.066 -12.934,29 -29,29 H 90.999996 c -16.066,0 -28.999999,-12.934 -28.999999,-29 v -66 c 0,-16.066 12.933999,-29 28.999999,-29 z" />
      <path
         inkscape:connector-curvature="0"
         id="path1006"
         d="m 122,271.64999 c -1.939,0 -3.5,1.56102 -3.5,3.50003 0,1.93897 1.561,3.49999 3.5,3.49999 1.939,0 3.5,-1.56102 3.5,-3.49999 0,-1.93901 -1.561,-3.50003 -3.5,-3.50003 z m 10,5.00001 c -2.76999,0 -5,2.23 -5,5.00001 0,2.76998 2.23001,4.99998 5,4.99998 2.76999,0 5,-2.23 5,-4.99998 0,-2.77001 -2.23001,-5.00001 -5,-5.00001 z m -11,6.99999 c -2.76999,0 -5,2.23003 -5,5.00001 0,2.77002 2.23001,5.00001 5,5.00001 2.76999,0 5,-2.22999 5,-5.00001 0,-2.76998 -2.23001,-5.00001 -5,-5.00001 z m 13,10.00002 c -3.32399,0 -6,2.67602 -6,6 0,3.32399 2.67601,6 6,6 3.32399,0 6,-2.67601 6,-6 0,-3.32398 -2.67601,-6 -6,-6 z m -16.00001,4.99998 c -3.32398,0 -5.99999,2.67602 -5.99999,6 0,3.32402 2.67601,6 5.99999,6 3.324,0 6.00001,-2.67598 6.00001,-6 0,-3.32398 -2.67601,-6 -6.00001,-6 z m -14.12108,14.85547 v 0.002 a 1.0001,1.0001 0 0 0 -0.5918,0.20712 c -8.368786,6.4289 -13.278457,16.38244 -13.287104,26.93552 0,18.76588 15.234154,34.00003 33.999994,34.00003 18.76584,0 33.99999,-15.23415 33.99999,-34.00003 a 1.0001,1.0001 0 0 0 0,-0.002 c -0.0151,-10.54137 -4.92314,-20.48058 -13.28124,-26.90427 a 1.0001,1.0001 0 0 0 -1.30469,0.0741 c -0.64153,0.62072 -1.3119,1.21096 -2.00976,1.76758 -0.73107,0.57951 -1.49016,1.12134 -2.27538,1.625 a 1.0001,1.0001 0 0 0 -0.002,0 c -0.78526,0.50469 -1.59406,0.97074 -2.42578,1.39454 -0.83216,0.4233 -1.68442,0.80446 -2.55469,1.14255 a 1.0001,1.0001 0 0 0 -0.002,0 c -0.8698,0.33827 -1.75507,0.63306 -2.6543,0.88282 -0.8994,0.24982 -1.81062,0.45271 -2.73046,0.61134 -0.92034,0.15874 -1.84771,0.27175 -2.77931,0.33789 -0.65898,0.0465 -1.31983,0.0703 -1.98046,0.0703 -0.93332,7e-5 -1.86626,-0.0457 -2.79492,-0.13871 -0.92909,-0.0934 -1.85227,-0.23433 -2.76749,-0.41991 -0.9149,-0.1852 -1.82108,-0.41567 -2.71289,-0.69142 -0.89171,-0.2759 -1.7692,-0.5974 -2.62891,-0.96095 -0.86021,-0.36359 -1.69994,-0.76894 -2.51953,-1.21678 a 1.0001,1.0001 0 0 0 -0.002,0 c -0.81902,-0.44714 -1.61446,-0.93632 -2.38478,-1.46292 v 0.002 c -0.76596,-0.52475 -1.50476,-1.08737 -2.21483,-1.68556 l -0.006,-0.004 c -0.002,-0.002 -0.004,-0.004 -0.006,-0.008 -0.46768,-0.40702 -0.9217,-0.8304 -1.36133,-1.26758 a 1.0001,1.0001 0 0 0 -0.72272,-0.29098 z"
         style="color:#000000;font-style:normal;font-variant:normal;font-weight:normal;font-stretch:normal;font-size:medium;line-height:normal;font-family:sans-serif;font-variant-ligatures:normal;font-variant-position:normal;font-variant-caps:normal;font-variant-numeric:normal;font-variant-alternates:normal;font-feature-settings:normal;text-indent:0;text-align:start;text-decoration:none;text-decoration-line:none;text-decoration-style:solid;text-decoration-color:#000000;letter-spacing:normal;word-spacing:normal;text-transform:none;writing-mode:lr-tb;direction:ltr;text-orientation:mixed;dominant-baseline:auto;baseline-shift:baseline;text-anchor:start;white-space:normal;shape-padding:0;clip-rule:nonzero;display:inline;overflow:visible;visibility:visible;opacity:1;isolation:auto;mix-blend-mode:normal;color-interpolation:sRGB;color-interpolation-filters:linearRGB;solid-color:#000000;solid-opacity:1;vector-effect:none;fill:#d9eff9;fill-opacity:1;fill-rule:nonzero;stroke:none;stroke-width:2;stroke-linecap:round;stroke-linejoin:round;stroke-miterlimit:4;stroke-dasharray:none;stroke-dashoffset:0;stroke-opacity:1;color-rendering:auto;image-rendering:auto;shape-rendering:auto;text-rendering:auto;enable-background:accumulate" />
    </g>
  </g>
</svg>
