<?xml version="1.0" encoding="UTF-8" standalone="no"?>
<svg
   xmlns:dc="http://purl.org/dc/elements/1.1/"
   xmlns:cc="http://creativecommons.org/ns#"
   xmlns:rdf="http://www.w3.org/1999/02/22-rdf-syntax-ns#"
   xmlns:svg="http://www.w3.org/2000/svg"
   xmlns="http://www.w3.org/2000/svg"
   xmlns:xlink="http://www.w3.org/1999/xlink"
   xmlns:sodipodi="http://sodipodi.sourceforge.net/DTD/sodipodi-0.dtd"
   xmlns:inkscape="http://www.inkscape.org/namespaces/inkscape"
   width="128"
   height="128"
   viewBox="0 0 128 128"
   version="1.1"
   id="svg8"
   inkscape:version="1.0.1 (3bc2e81, 2020-09-07)"
   sodipodi:docname="opensuse.svg">
  <title
     id="title7895">Antu icon Theme</title>
  <defs
     id="defs2">
    <linearGradient
       inkscape:collect="always"
       xlink:href="#linearGradient1026"
       id="linearGradient1680"
       gradientUnits="userSpaceOnUse"
       x1="17.197916"
       y1="33.072914"
       x2="16.933332"
       y2="0.5291658"
       gradientTransform="matrix(3.7795276,0,0,3.7795276,343,447.64999)" />
    <linearGradient
       id="linearGradient1026"
       inkscape:collect="always">
      <stop
         id="stop1022"
         offset="0"
         style="stop-color:#009e90;stop-opacity:1" />
      <stop
         id="stop1024"
         offset="1"
         style="stop-color:#5cc0b6;stop-opacity:0.97647059" />
    </linearGradient>
  </defs>
  <sodipodi:namedview
     id="base"
     pagecolor="#ffffff"
     bordercolor="#666666"
     borderopacity="1.0"
     inkscape:pageopacity="0.0"
     inkscape:pageshadow="2"
     inkscape:zoom="11.2"
     inkscape:cx="131.43496"
     inkscape:cy="63.06634"
     inkscape:document-units="px"
     inkscape:current-layer="g870"
     showgrid="true"
     units="px"
     inkscape:window-width="1920"
     inkscape:window-height="1126"
     inkscape:window-x="0"
     inkscape:window-y="0"
     inkscape:window-maximized="1"
     objecttolerance="10"
     gridtolerance="10"
     guidetolerance="10"
     inkscape:document-rotation="0">
    <inkscape:grid
       type="xygrid"
       id="grid7897"
       empspacing="4" />
  </sodipodi:namedview>
  <metadata
     id="metadata5">
    <rdf:RDF>
      <cc:Work
         rdf:about="">
        <dc:format>image/svg+xml</dc:format>
        <dc:type
           rdf:resource="http://purl.org/dc/dcmitype/StillImage" />
        <dc:title>Antu icon Theme</dc:title>
      </cc:Work>
    </rdf:RDF>
  </metadata>
  <g
     inkscape:label="Capa 1"
     inkscape:groupmode="layer"
     id="layer1"
     transform="translate(0,-186.64999)">
    <g
       id="g1525"
       transform="translate(-32,-4)">
      <g
         id="g865"
         transform="translate(-167,-141)">
        <g
           id="g870"
           transform="translate(-144,-116)">
          <path
             id="rect845"
             style="fill:#0d6171;fill-opacity:0.996078;stroke-width:2;stroke-linecap:round;stroke-linejoin:round"
             d="m 374,448.64999 h 65.99999 c 16.62,0 30,13.38 30,30 v 65.99999 c 0,16.62 -13.38,30 -30,30 H 374 c -16.62,0 -30,-13.38 -30,-30 v -65.99999 c 0,-16.62 13.38,-30 30,-30 z" />
          <path
             id="rect845-6"
             style="fill:url(#linearGradient1680);fill-opacity:1;stroke-width:1.96826;stroke-linecap:round;stroke-linejoin:round"
             d="m 374,449.64999 h 66 c 16.066,0 29,12.934 29,29 v 66 c 0,16.066 -12.934,29 -29,29 h -66 c -16.066,0 -29,-12.934 -29,-29 v -66 c 0,-16.066 12.934,-29 29,-29 z" />
          <path
             inkscape:connector-curvature="0"
             style="fill:#0d6070;fill-opacity:0.99607843;stroke:none;stroke-width:0.999999px;stroke-linecap:butt;stroke-linejoin:miter;stroke-opacity:1"
             d="m 386.00301,471.66002 v 13.00003 l -15,-7.00003 c -9.58888,24.53791 -11.70039,49.17627 0,74.00001 23.63805,-20.71203 64.41924,23.68502 80.00001,-29 -30.19429,11.7824 -51.89782,7.45095 -63,-16.99998 23.82935,30.45486 51.49553,16.84728 63,9.99998 -2.33616,-24.34593 -12.9932,-44.5254 -65.00001,-44.00001 z m 31,8.00001 c 10.526,0 19.00001,8.47401 19.00001,18.99999 0,10.52602 -8.47401,19.00003 -19.00001,19.00003 -10.52598,0 -19,-8.47401 -19,-19.00003 0,-10.52598 8.47402,-18.99999 19,-18.99999 z m 0,3.99999 c -8.30998,0 -15,6.69003 -15,15 0,8.31001 6.69002,15 15,15 8.30999,0 15,-6.68999 15,-15 0,-8.30997 -6.69001,-15 -15,-15 z m 4.5,8.00002 c 0.21657,4.9e-4 0.43301,0.008 0.64845,0.0265 0.21566,0.0151 0.43012,0.0412 0.64258,0.0741 0.21214,0.034 0.42205,0.0737 0.62889,0.12283 0.20739,0.0495 0.41142,0.10696 0.61134,0.17197 0.1999,0.0646 0.39545,0.1372 0.58594,0.21695 0.1898,0.0801 0.37428,0.16743 0.55273,0.26192 0.17899,0.0941 0.35172,0.1954 0.51758,0.30274 0.16546,0.10696 0.32386,0.22034 0.47461,0.33978 0.15133,0.11981 0.29472,0.24567 0.42969,0.37682 0.13436,0.13039 0.26014,0.26607 0.37693,0.40622 0.11739,0.14022 0.2256,0.28498 0.32421,0.43359 0.0983,0.14816 0.18697,0.30009 0.26562,0.45509 0.0786,0.15534 0.14706,0.3137 0.20508,0.47459 0.0581,0.16101 0.10568,0.32391 0.14256,0.48832 0.0367,0.16441 0.0628,0.32995 0.0781,0.49606 0.0106,0.11755 0.0159,0.23547 0.0155,0.35339 -2.2e-4,0.16705 -0.0113,0.33373 -0.0333,0.49999 -0.0212,0.16592 -0.0531,0.33071 -0.0957,0.49413 -0.0435,0.16328 -0.0976,0.32504 -0.1621,0.48439 -0.064,0.15912 -0.13833,0.31559 -0.22265,0.46874 -0.084,0.15307 -0.17783,0.30312 -0.28124,0.44923 -0.10394,0.14703 -0.21736,0.28952 -0.33985,0.42773 -0.12284,0.1372 -0.25452,0.26948 -0.39454,0.39648 -0.13916,0.12737 -0.28645,0.24907 -0.4414,0.3651 -0.15549,0.11603 -0.31846,0.22639 -0.48827,0.32995 -0.17001,0.10394 -0.34666,0.20107 -0.52931,0.29102 -0.18198,0.0903 -0.36971,0.17386 -0.56249,0.24983 -0.1934,0.0752 -0.39156,0.14325 -0.59376,0.20334 -0.20217,0.0608 -0.40815,0.11339 -0.61718,0.15836 -0.20845,0.0446 -0.41965,0.0809 -0.63282,0.10923 -0.21403,0.0302 -0.42981,0.0488 -0.64648,0.0605 -0.15277,0.008 -0.30588,0.0113 -0.459,0.0113 -0.21656,-4.9e-4 -0.433,-0.008 -0.64843,-0.0265 -0.21567,-0.0151 -0.43013,-0.0412 -0.64259,-0.0741 -0.21218,-0.034 -0.42206,-0.0741 -0.62889,-0.12321 -0.20739,-0.0495 -0.41142,-0.10696 -0.61133,-0.17197 -0.1999,-0.0646 -0.39546,-0.1372 -0.58595,-0.21695 -0.18981,-0.0801 -0.37429,-0.16743 -0.55272,-0.26192 -0.179,-0.0941 -0.35173,-0.1954 -0.51758,-0.30274 -0.16547,-0.10696 -0.32387,-0.22072 -0.47461,-0.33978 -0.15134,-0.11981 -0.29473,-0.24567 -0.4297,-0.37682 -0.13436,-0.13039 -0.26018,-0.26607 -0.37697,-0.40626 -0.11739,-0.14022 -0.22559,-0.28497 -0.3242,-0.43359 -0.0983,-0.14815 -0.18698,-0.30009 -0.26563,-0.45505 -0.0786,-0.15534 -0.14706,-0.31408 -0.20508,-0.47463 -0.0581,-0.16063 -0.10571,-0.32391 -0.1426,-0.48828 -0.0367,-0.16441 -0.0628,-0.32995 -0.0781,-0.4961 -0.0106,-0.11754 -0.0159,-0.23546 -0.0155,-0.35339 2.3e-4,-0.16705 0.0113,-0.33373 0.0333,-0.49999 0.0212,-0.16592 0.0531,-0.33071 0.0957,-0.49414 0.0436,-0.16289 0.0977,-0.3239 0.16211,-0.48241 0.064,-0.1595 0.13825,-0.31673 0.22265,-0.47075 0.084,-0.15307 0.17782,-0.30311 0.28123,-0.44919 0.10398,-0.14627 0.2174,-0.28838 0.33986,-0.4258 0.12276,-0.13796 0.25444,-0.27062 0.39453,-0.39844 0.13916,-0.12737 0.28645,-0.24907 0.4414,-0.3651 0.15549,-0.11604 0.31846,-0.2264 0.48828,-0.32996 0.17,-0.10356 0.34666,-0.20069 0.5293,-0.29102 0.18202,-0.09 0.36975,-0.17235 0.5625,-0.24794 0.19332,-0.076 0.3915,-0.14437 0.59375,-0.20523 0.20217,-0.0609 0.40815,-0.11338 0.61719,-0.15836 0.20844,-0.0446 0.41964,-0.0809 0.63281,-0.10923 0.21403,-0.0302 0.42982,-0.0488 0.64649,-0.0605 0.15277,-0.008 0.30588,-0.0113 0.45899,-0.0113 z"
             id="path1284-0"
             sodipodi:nodetypes="ccccccccsssssssssscccccccccccccccccccccccccccccccccccccccccccccccccccccccccccccccccc" />
        </g>
      </g>
    </g>
  </g>
</svg>
