<?xml version="1.0" encoding="UTF-8" standalone="no"?>
<svg
   xmlns:dc="http://purl.org/dc/elements/1.1/"
   xmlns:cc="http://creativecommons.org/ns#"
   xmlns:rdf="http://www.w3.org/1999/02/22-rdf-syntax-ns#"
   xmlns:svg="http://www.w3.org/2000/svg"
   xmlns="http://www.w3.org/2000/svg"
   xmlns:xlink="http://www.w3.org/1999/xlink"
   xmlns:sodipodi="http://sodipodi.sourceforge.net/DTD/sodipodi-0.dtd"
   xmlns:inkscape="http://www.inkscape.org/namespaces/inkscape"
   width="128"
   height="128"
   viewBox="0 0 128 128"
   version="1.1"
   id="svg8"
   inkscape:version="1.0.1 (3bc2e81, 2020-09-07)"
   sodipodi:docname="start-here-kde-plasma.svg">
  <title
     id="title7895">Antu icon Theme</title>
  <defs
     id="defs2">
    <linearGradient
       inkscape:collect="always"
       xlink:href="#linearGradient2126"
       id="linearGradient941"
       x1="17.197916"
       y1="33.072914"
       x2="16.933332"
       y2="0.5291658"
       gradientUnits="userSpaceOnUse"
       gradientTransform="matrix(3.7795276,0,0,3.7795276,-84.560982,174.33672)" />
    <style
       id="current-color-scheme"
       type="text/css">
      .ColorScheme-Text {
        color:#122036;
      }
      </style>
    <style
       id="current-color-scheme-7"
       type="text/css">
      .ColorScheme-Text {
        color:#122036;
      }
      </style>
    <style
       id="current-color-scheme-5"
       type="text/css">
      .ColorScheme-Text {
        color:#122036;
      }
      </style>
    <style
       type="text/css"
       id="current-color-scheme-9">
      .ColorScheme-Text {
        color:#122036;
      }
      </style>
    <style
       type="text/css"
       id="current-color-scheme-1">
      .ColorScheme-Text {
        color:#122036;
      }
      </style>
    <style
       id="current-color-scheme-10"
       type="text/css">
      .ColorScheme-Text {
        color:#122036;
      }
      </style>
    <style
       type="text/css"
       id="current-color-scheme-6">
      .ColorScheme-Text {
        color:#122036;
      }
      </style>
    <style
       type="text/css"
       id="current-color-scheme-7-1">
      .ColorScheme-Text {
        color:#122036;
      }
      </style>
    <style
       type="text/css"
       id="current-color-scheme-5-2">
      .ColorScheme-Text {
        color:#122036;
      }
      </style>
    <style
       id="current-color-scheme-2"
       type="text/css">
      .ColorScheme-Text {
        color:#122036;
      }
      </style>
    <style
       id="current-color-scheme-7-9"
       type="text/css">
      .ColorScheme-Text {
        color:#122036;
      }
      </style>
    <style
       id="current-color-scheme-5-1"
       type="text/css">
      .ColorScheme-Text {
        color:#122036;
      }
      </style>
    <style
       type="text/css"
       id="current-color-scheme-9-2">
      .ColorScheme-Text {
        color:#122036;
      }
      </style>
    <style
       type="text/css"
       id="current-color-scheme-1-7">
      .ColorScheme-Text {
        color:#122036;
      }
      </style>
    <style
       id="current-color-scheme-10-0"
       type="text/css">
      .ColorScheme-Text {
        color:#122036;
      }
      </style>
    <style
       type="text/css"
       id="current-color-scheme-6-9">
      .ColorScheme-Text {
        color:#122036;
      }
      </style>
    <style
       type="text/css"
       id="current-color-scheme-7-1-3">
      .ColorScheme-Text {
        color:#122036;
      }
      </style>
    <style
       type="text/css"
       id="current-color-scheme-5-2-6">
      .ColorScheme-Text {
        color:#122036;
      }
      </style>
    <linearGradient
       inkscape:collect="always"
       id="linearGradient2126">
      <stop
         style="stop-color:#475057;stop-opacity:1;"
         offset="0"
         id="stop2122" />
      <stop
         style="stop-color:#5e6a73;stop-opacity:1"
         offset="1"
         id="stop2124" />
    </linearGradient>
  </defs>
  <sodipodi:namedview
     id="base"
     pagecolor="#ffffff"
     bordercolor="#666666"
     borderopacity="1.0"
     inkscape:pageopacity="0.0"
     inkscape:pageshadow="2"
     inkscape:zoom="4"
     inkscape:cx="-13.920997"
     inkscape:cy="53.520624"
     inkscape:document-units="px"
     inkscape:current-layer="g1525"
     showgrid="false"
     units="px"
     inkscape:window-width="1920"
     inkscape:window-height="1126"
     inkscape:window-x="0"
     inkscape:window-y="0"
     inkscape:window-maximized="1"
     objecttolerance="10"
     gridtolerance="10"
     guidetolerance="10"
     inkscape:document-rotation="0">
    <inkscape:grid
       type="xygrid"
       id="grid7897"
       empspacing="4" />
  </sodipodi:namedview>
  <metadata
     id="metadata5">
    <rdf:RDF>
      <cc:Work
         rdf:about="">
        <dc:format>image/svg+xml</dc:format>
        <dc:type
           rdf:resource="http://purl.org/dc/dcmitype/StillImage" />
        <dc:title>Antu icon Theme</dc:title>
      </cc:Work>
    </rdf:RDF>
  </metadata>
  <g
     inkscape:label="Capa 1"
     inkscape:groupmode="layer"
     id="layer1"
     transform="translate(0,-186.64999)">
    <g
       id="g1525"
       transform="translate(-32,-4)">
      <g
         id="g862"
         transform="translate(116.56099,16.313275)">
        <path
           id="rect845"
           style="fill:#343b40;fill-opacity:1;stroke-width:2;stroke-linecap:round;stroke-linejoin:round"
           d="m -53.560982,175.33672 h 65.99999 c 16.62,0 30,13.38 30,30 v 65.99999 c 0,16.62 -13.38,30 -30,30 h -65.99999 c -16.62,0 -30,-13.38 -30,-30 v -65.99999 c 0,-16.62 13.38,-30 30,-30 z" />
        <path
           id="rect845-6"
           style="fill:url(#linearGradient941);fill-opacity:1.0;stroke-width:1.96826;stroke-linecap:round;stroke-linejoin:round"
           d="m -53.560986,176.33672 h 66.000004 c 16.066,0 29,12.934 29,29 v 66 c 0,16.066 -12.934,29 -29,29 h -66.000004 c -16.066,0 -28.999999,-12.934 -28.999999,-29 v -66 c 0,-16.066 12.933999,-29 28.999999,-29 z" />
        <path
           id="rect4119-2"
           d="m -11.589712,190.33683 c -0.51927,0.008 -1.01516,0.21719 -1.38281,0.58398 l -10.999998,11 c -0.782037,0.78128 -0.782037,2.0488 0,2.83008 l 21.4121081,21.58594 -21.4453081,22.61719 c -0.750988,0.78634 -0.73624,2.02858 0.03326,2.79687 l 10.999998,11 c 0.789,0.78665 2.06867,0.77698 2.8457,-0.0215 l 34,-35 c 0.76189,-0.78463 0.75235,-2.03571 -0.0215,-2.80859 l -34.00006,-33.99996 c -0.38198,-0.38114 -0.90181,-0.59174 -1.44139,-0.58399 z m -33.970699,8 c -3.878,0 -6.999999,3.122 -6.999999,7 0,3.87799 3.121999,7 6.999999,7 3.878,0 7.000003,-3.12201 7.000003,-7 0,-3.878 -3.122003,-7 -7.000003,-7 z m -9,26 c -6.093978,0 -10.999998,4.90602 -10.999998,11 0,6.09397 4.90602,11 10.999998,11 6.093981,0 11.000001,-4.90603 11.000001,-11 0,-6.09398 -4.90602,-11 -11.000001,-11 z m 15,32 c -8.309998,0 -15,6.69 -15,15 0,8.30999 6.690002,15 15,15 8.310002,0 15,-6.69001 15,-15 0,-8.31 -6.689998,-15 -15,-15 z"
           style="fill:#272727;fill-opacity:1;stroke-width:2.23999"
           inkscape:connector-curvature="0" />
      </g>
    </g>
  </g>
</svg>
