<?xml version="1.0" encoding="UTF-8" standalone="no"?>
<svg
   xmlns:dc="http://purl.org/dc/elements/1.1/"
   xmlns:cc="http://creativecommons.org/ns#"
   xmlns:rdf="http://www.w3.org/1999/02/22-rdf-syntax-ns#"
   xmlns:svg="http://www.w3.org/2000/svg"
   xmlns="http://www.w3.org/2000/svg"
   xmlns:xlink="http://www.w3.org/1999/xlink"
   xmlns:sodipodi="http://sodipodi.sourceforge.net/DTD/sodipodi-0.dtd"
   xmlns:inkscape="http://www.inkscape.org/namespaces/inkscape"
   width="128"
   height="128"
   viewBox="0 0 128 128"
   version="1.1"
   id="svg8"
   inkscape:version="1.0.1 (3bc2e81, 2020-09-07)"
   sodipodi:docname="start-here.svg">
  <title
     id="title7895">Antu icon Theme</title>
  <defs
     id="defs2">
    <linearGradient
       inkscape:collect="always"
       xlink:href="#linearGradient10231"
       id="linearGradient941"
       x1="17.197916"
       y1="33.072914"
       x2="16.933332"
       y2="0.5291658"
       gradientUnits="userSpaceOnUse"
       gradientTransform="matrix(3.7795276,0,0,3.7795276,-40,198.64998)" />
    <linearGradient
       inkscape:collect="always"
       id="linearGradient10231">
      <stop
         style="stop-color:#3e9ff4;stop-opacity:1"
         offset="0"
         id="stop10227" />
      <stop
         style="stop-color:#50c2f9;stop-opacity:1"
         offset="1"
         id="stop10229" />
    </linearGradient>
  </defs>
  <sodipodi:namedview
     id="base"
     pagecolor="#ffffff"
     bordercolor="#666666"
     borderopacity="1.0"
     inkscape:pageopacity="0.0"
     inkscape:pageshadow="2"
     inkscape:zoom="7.919596"
     inkscape:cx="24.206769"
     inkscape:cy="39.049282"
     inkscape:document-units="px"
     inkscape:current-layer="g874"
     showgrid="true"
     units="px"
     inkscape:window-width="1920"
     inkscape:window-height="1126"
     inkscape:window-x="0"
     inkscape:window-y="0"
     inkscape:window-maximized="1"
     objecttolerance="10"
     gridtolerance="10"
     guidetolerance="10"
     inkscape:document-rotation="0">
    <inkscape:grid
       type="xygrid"
       id="grid7897"
       empspacing="4" />
  </sodipodi:namedview>
  <metadata
     id="metadata5">
    <rdf:RDF>
      <cc:Work
         rdf:about="">
        <dc:format>image/svg+xml</dc:format>
        <dc:type
           rdf:resource="http://purl.org/dc/dcmitype/StillImage" />
        <dc:title>Antu icon Theme</dc:title>
      </cc:Work>
    </rdf:RDF>
  </metadata>
  <g
     inkscape:label="Capa 1"
     inkscape:groupmode="layer"
     id="layer1"
     transform="translate(0,-186.64999)">
    <g
       id="g874"
       transform="translate(40.000004,-12)">
      <rect
         style="fill:#3182d9;fill-opacity:0.909804;stroke-width:2;stroke-linecap:round;stroke-linejoin:round"
         id="rect845"
         width="125.99999"
         height="125.99999"
         x="-39"
         y="199.64999"
         ry="30" />
      <rect
         style="fill:url(#linearGradient941);fill-opacity:1;stroke-width:1.96826;stroke-linecap:round;stroke-linejoin:round"
         id="rect845-6"
         width="124.00001"
         height="124.00001"
         x="-38.000004"
         y="200.64999"
         ry="29" />
      <path
         style="opacity:1;fill:#3c6fa6;fill-opacity:0.90980393;stroke:none;stroke-width:0.3;stroke-miterlimit:4;stroke-dasharray:none;stroke-opacity:1"
         d="m 1.000002,230.64998 c -4.986,0 -9.000002,4.01399 -9.000002,9 0,4.98601 4.014002,9 9.000002,9 4.985998,0 9,-4.01399 9,-9 0,-4.98601 -4.014002,-9 -9,-9 z m 22.999997,0 c -4.985998,0 -9,4.01399 -9,9 0,4.98601 4.013999,9 9,9 4.985999,0 8.999997,-4.01399 8.999997,-9 0,-4.98601 -4.013998,-9 -8.999997,-9 z m 22.999998,0 c -4.985964,0 -9,4.01399 -9,9 0,4.98593 4.014036,9 9,9 4.985979,0 9,-4.01407 9,-9 0,-4.98601 -4.014021,-9 -9,-9 z m -45.999995,23 c -4.986,0 -9.000002,4.01399 -9.000002,9 0,4.98601 4.014002,9 9.000002,9 4.985998,0 9,-4.01399 9,-9 0,-4.98601 -4.014002,-9 -9,-9 z m 22.999997,0 c -4.985998,0 -9,4.01399 -9,9 0,4.98601 4.013999,9 9,9 4.985999,0 8.999997,-4.01399 8.999997,-9 0,-4.98601 -4.013998,-9 -8.999997,-9 z m 22.999998,0 c -4.985964,0 -9,4.01399 -9,9 0,4.98593 4.014036,9 9,9 4.985972,0 9,-4.01407 9,-9 0,-4.98601 -4.014028,-9 -9,-9 z m -45.999995,23 c -4.986,0 -9.000002,4.01399 -9.000002,9 0,4.98601 4.014002,9 9.000002,9 4.985998,0 9,-4.01399 9,-9 0,-4.98601 -4.014002,-9 -9,-9 z m 22.999997,0 c -4.985998,0 -9,4.01399 -9,9 0,4.98601 4.013999,9 9,9 4.985999,0 8.999997,-4.01399 8.999997,-9 0,-4.98601 -4.013998,-9 -8.999997,-9 z m 22.999998,0 c -4.985964,0 -9,4.01407 -9,9 0,4.98601 4.014036,9 9,9 4.985972,0 9,-4.01399 9,-9 0,-4.98593 -4.014028,-9 -9,-9 z"
         id="rect4673-6"
         inkscape:connector-curvature="0" />
    </g>
  </g>
</svg>
