<?xml version="1.0" encoding="UTF-8" standalone="no"?>
<svg
   xmlns:dc="http://purl.org/dc/elements/1.1/"
   xmlns:cc="http://creativecommons.org/ns#"
   xmlns:rdf="http://www.w3.org/1999/02/22-rdf-syntax-ns#"
   xmlns:svg="http://www.w3.org/2000/svg"
   xmlns="http://www.w3.org/2000/svg"
   xmlns:xlink="http://www.w3.org/1999/xlink"
   xmlns:sodipodi="http://sodipodi.sourceforge.net/DTD/sodipodi-0.dtd"
   xmlns:inkscape="http://www.inkscape.org/namespaces/inkscape"
   width="128"
   height="128"
   viewBox="0 0 128 128"
   version="1.1"
   id="svg8"
   inkscape:version="1.0.1 (3bc2e81, 2020-09-07)"
   sodipodi:docname="ubuntu.svg">
  <title
     id="title7895">Antu icon Theme</title>
  <defs
     id="defs2">
    <linearGradient
       inkscape:collect="always"
       xlink:href="#linearGradient4622"
       id="linearGradient941"
       x1="17.197916"
       y1="33.072914"
       x2="16.933332"
       y2="0.5291658"
       gradientUnits="userSpaceOnUse"
       gradientTransform="matrix(3.7795276,0,0,3.7795276,296,406.64998)" />
    <linearGradient
       id="linearGradient4622"
       inkscape:collect="always">
      <stop
         id="stop4618"
         offset="0"
         style="stop-color:#ff6a3e;stop-opacity:1" />
      <stop
         id="stop4620"
         offset="1"
         style="stop-color:#ff9065;stop-opacity:1" />
    </linearGradient>
  </defs>
  <sodipodi:namedview
     id="base"
     pagecolor="#ffffff"
     bordercolor="#666666"
     borderopacity="1.0"
     inkscape:pageopacity="0.0"
     inkscape:pageshadow="2"
     inkscape:zoom="3.959798"
     inkscape:cx="39.295373"
     inkscape:cy="63.053816"
     inkscape:document-units="px"
     inkscape:current-layer="g1525"
     showgrid="true"
     units="px"
     inkscape:window-width="1920"
     inkscape:window-height="1126"
     inkscape:window-x="0"
     inkscape:window-y="0"
     inkscape:window-maximized="1"
     objecttolerance="10"
     gridtolerance="10"
     guidetolerance="10"
     inkscape:document-rotation="0">
    <inkscape:grid
       type="xygrid"
       id="grid7897"
       empspacing="4" />
  </sodipodi:namedview>
  <metadata
     id="metadata5">
    <rdf:RDF>
      <cc:Work
         rdf:about="">
        <dc:format>image/svg+xml</dc:format>
        <dc:type
           rdf:resource="http://purl.org/dc/dcmitype/StillImage" />
        <dc:title>Antu icon Theme</dc:title>
      </cc:Work>
    </rdf:RDF>
  </metadata>
  <g
     inkscape:label="Capa 1"
     inkscape:groupmode="layer"
     id="layer1"
     transform="translate(0,-186.64999)">
    <g
       id="g1525"
       transform="translate(-32,-4)">
      <g
         id="g863"
         transform="translate(-264,-216)">
        <rect
           style="fill:#dd4d25;fill-opacity:1;stroke-width:2;stroke-linecap:round;stroke-linejoin:round"
           id="rect845"
           width="125.99999"
           height="125.99999"
           x="297"
           y="407.64999"
           ry="30" />
        <rect
           style="fill:url(#linearGradient941);fill-opacity:1;stroke-width:1.96826;stroke-linecap:round;stroke-linejoin:round"
           id="rect845-6"
           width="124.00001"
           height="124.00001"
           x="298"
           y="408.64999"
           ry="29" />
        <path
           inkscape:connector-curvature="0"
           id="path1012"
           d="m 384.99997,424.64995 a 9.9999999,9.9999999 0 0 0 -10,10.00002 9.9999999,9.9999999 0 0 0 10,10.00003 9.9999999,9.9999999 0 0 0 9.99999,-10.00003 9.9999999,9.9999999 0 0 0 -9.99999,-10.00002 z m -21.76171,12 a 36.000002,36.000002 0 0 0 -20.37108,6.15625 l 7.83202,11.60549 a 22.000001,22.000001 0 0 1 1.87891,-1.13673 22.000001,22.000001 0 0 1 1.98828,-0.94526 22.000001,22.000001 0 0 1 2.07031,-0.73852 22.000001,22.000001 0 0 1 2.13281,-0.5314 22.000001,22.000001 0 0 1 2.17969,-0.31219 22.000001,22.000001 0 0 1 2.1953,-0.0975 22.000001,22.000001 0 0 1 2.19532,0.12472 22.000001,22.000001 0 0 1 2.17187,0.34394 22.000001,22.000001 0 0 1 2.1289,0.55862 22.000001,22.000001 0 0 1 1.77735,0.64856 22.000001,22.000001 0 0 1 1.98828,0.94141 22.000001,22.000001 0 0 1 1.88281,1.13673 22.000001,22.000001 0 0 1 1.76171,1.31641 22.000001,22.000001 0 0 1 1.6172,1.48822 22.000001,22.000001 0 0 1 1.46484,1.64062 22.000001,22.000001 0 0 1 1.29296,1.77736 22.000001,22.000001 0 0 1 1.10548,1.90239 22.000001,22.000001 0 0 1 0.91406,1.99997 22.000001,22.000001 0 0 1 0.71092,2.08207 22.000001,22.000001 0 0 1 0.44138,1.8398 l 13.74219,-2.6719 a 36.000002,36.000002 0 0 0 -9.80859,-18.48431 12.000001,12.000001 0 0 1 -0.0899,0.0529 12.000001,12.000001 0 0 1 -1.09375,0.48831 12.000001,12.000001 0 0 1 -1.13671,0.37871 12.000001,12.000001 0 0 1 -1.17189,0.26154 12.000001,12.000001 0 0 1 -1.19141,0.14438 12.000001,12.000001 0 0 1 -0.84765,0.0302 12.000001,12.000001 0 0 1 -1.19922,-0.0605 12.000001,12.000001 0 0 1 -1.18359,-0.1799 12.000001,12.000001 0 0 1 -1.16407,-0.29708 12.000001,12.000001 0 0 1 -1.125,-0.41045 12.000001,12.000001 0 0 1 -1.08202,-0.52309 12.000001,12.000001 0 0 1 -1.02344,-0.62891 12.000001,12.000001 0 0 1 -0.95313,-0.72265 12.000001,12.000001 0 0 1 -0.8789,-0.82031 12.000001,12.000001 0 0 1 -0.78907,-0.89847 12.000001,12.000001 0 0 1 -0.69921,-0.97655 12.000001,12.000001 0 0 1 -0.59762,-1.04292 12.000001,12.000001 0 0 1 -0.48831,-1.0938 12.000001,12.000001 0 0 1 -0.37894,-1.13673 12.000001,12.000001 0 0 1 -0.26169,-1.17188 12.000001,12.000001 0 0 1 -0.13282,-1.08594 36.000002,36.000002 0 0 0 -7.80468,-0.95312 z m -26.1328,10.99223 a 36.000002,36.000002 0 0 0 -9.3789,17.98435 12.000001,12.000001 0 0 1 1.02734,0.4921 12.000001,12.000001 0 0 1 1.02344,0.62891 12.000001,12.000001 0 0 1 0.95312,0.72264 12.000001,12.000001 0 0 1 0.87891,0.82031 12.000001,12.000001 0 0 1 0.78906,0.89847 12.000001,12.000001 0 0 1 0.69921,0.97656 12.000001,12.000001 0 0 1 0.59762,1.043 12.000001,12.000001 0 0 1 0.48831,1.09372 12.000001,12.000001 0 0 1 0.37894,1.13673 12.000001,12.000001 0 0 1 0.26169,1.17188 12.000001,12.000001 0 0 1 0.14453,1.19138 12.000001,12.000001 0 0 1 0.031,0.84767 12.000001,12.000001 0 0 1 -0.059,1.19925 12.000001,12.000001 0 0 1 -0.17968,1.18359 12.000001,12.000001 0 0 1 -0.29684,1.16402 12.000001,12.000001 0 0 1 -0.41408,1.12502 12.000001,12.000001 0 0 1 -0.51954,1.082 12.000001,12.000001 0 0 1 -0.62891,1.0235 12.000001,12.000001 0 0 1 -0.72265,0.95312 12.000001,12.000001 0 0 1 -0.82031,0.87889 12.000001,12.000001 0 0 1 -0.89844,0.78901 12.000001,12.000001 0 0 1 -0.64842,0.46488 36.000002,36.000002 0 0 0 11.02344,14.50394 l 8.62109,-11.03131 a 22.000001,22.000001 0 0 1 -1.66407,-1.4375 22.000001,22.000001 0 0 1 -1.51171,-1.59761 22.000001,22.000001 0 0 1 -1.34375,-1.74221 22.000001,22.000001 0 0 1 -1.16407,-1.86716 22.000001,22.000001 0 0 1 -0.97265,-1.97269 22.000001,22.000001 0 0 1 -0.76953,-2.05856 22.000001,22.000001 0 0 1 -0.55862,-2.125 22.000001,22.000001 0 0 1 -0.34371,-2.17186 22.000001,22.000001 0 0 1 -0.0741,-0.82817 22.000001,22.000001 0 0 1 -0.0431,-2.19924 22.000001,22.000001 0 0 1 0.17575,-2.19137 22.000001,22.000001 0 0 1 0.39451,-2.16408 22.000001,22.000001 0 0 1 0.60548,-2.11328 22.000001,22.000001 0 0 1 0.8164,-2.04299 22.000001,22.000001 0 0 1 1.01563,-1.94918 22.000001,22.000001 0 0 1 1.20703,-1.83987 22.000001,22.000001 0 0 1 1.38281,-1.71092 22.000001,22.000001 0 0 1 0.5664,-0.60548 z M 321,466.64995 a 9.9999999,9.9999999 0 0 0 -10,10.00003 9.9999999,9.9999999 0 0 0 10,10.00002 9.9999999,9.9999999 0 0 0 10,-10.00002 9.9999999,9.9999999 0 0 0 -10,-10.00003 z m 63.99997,6 a 22.000001,22.000001 0 0 1 -0.10938,2.1953 22.000001,22.000001 0 0 1 -0.32814,2.1758 22.000001,22.000001 0 0 1 -0.5469,2.12893 22.000001,22.000001 0 0 1 -0.75394,2.06642 22.000001,22.000001 0 0 1 -0.95312,1.98048 22.000001,22.000001 0 0 1 -1.15234,1.87494 22.000001,22.000001 0 0 1 -1.32812,1.75 22.000001,22.000001 0 0 1 -1.50001,1.6094 22.000001,22.000001 0 0 1 -1.65234,1.45315 22.000001,22.000001 0 0 1 -1.78906,1.27733 22.000001,22.000001 0 0 1 -0.0665,0.0454 22.000001,22.000001 0 0 1 -1.91016,1.08594 22.000001,22.000001 0 0 1 -2.01171,0.89068 22.000001,22.000001 0 0 1 -2.08984,0.68712 22.000001,22.000001 0 0 1 -2.14844,0.47244 22.000001,22.000001 0 0 1 -2.18359,0.25776 22.000001,22.000001 0 0 1 -2.19922,0.0378 22.000001,22.000001 0 0 1 -2.1914,-0.18368 22.000001,22.000001 0 0 1 -2.16016,-0.39837 22.000001,22.000001 0 0 1 -2.11328,-0.61304 22.000001,22.000001 0 0 1 -2.03906,-0.8203 22.000001,22.000001 0 0 1 -0.0703,-0.0378 l -5.91797,12.69143 a 36.000002,36.000002 0 0 0 27.36717,1.23046 12.000001,12.000001 0 0 1 -0.12109,-1.01178 12.000001,12.000001 0 0 1 -0.031,-0.8476 12.000001,12.000001 0 0 1 0.059,-1.19924 12.000001,12.000001 0 0 1 0.17968,-1.1836 12.000001,12.000001 0 0 1 0.29684,-1.16409 12.000001,12.000001 0 0 1 0.41409,-1.12494 12.000001,12.000001 0 0 1 0.51953,-1.08208 12.000001,12.000001 0 0 1 0.62891,-1.02342 12.000001,12.000001 0 0 1 0.72265,-0.95312 12.000001,12.000001 0 0 1 0.82031,-0.87889 12.000001,12.000001 0 0 1 0.89844,-0.78909 12.000001,12.000001 0 0 1 0.97656,-0.69921 12.000001,12.000001 0 0 1 1.04297,-0.59792 12.000001,12.000001 0 0 1 1.09375,-0.48832 12.000001,12.000001 0 0 1 1.13672,-0.37871 12.000001,12.000001 0 0 1 1.17187,-0.26154 12.000001,12.000001 0 0 1 1.19141,-0.14438 12.000001,12.000001 0 0 1 0.84767,-0.0302 12.000001,12.000001 0 0 1 1.19922,0.0605 12.000001,12.000001 0 0 1 1.18359,0.17991 12.000001,12.000001 0 0 1 1.16406,0.29707 12.000001,12.000001 0 0 1 1.125,0.41045 12.000001,12.000001 0 0 1 0.42187,0.20334 36.000002,36.000002 0 0 0 6.90625,-21.1485 z m 4,24 a 9.9999999,9.9999999 0 0 0 -10,10.00003 9.9999999,9.9999999 0 0 0 10,10.00003 9.9999999,9.9999999 0 0 0 10.00001,-10.00003 9.9999999,9.9999999 0 0 0 -10.00001,-10.00003 z"
           style="fill:#c6401b;fill-opacity:1;stroke:none;stroke-width:4;stroke-linecap:round;stroke-linejoin:round;stroke-miterlimit:4;stroke-dasharray:none;stroke-opacity:1" />
      </g>
    </g>
  </g>
</svg>
